<svg xmlns="http://www.w3.org/2000/svg" width="180.927" height="149.527" viewBox="0 0 180.927 149.527"><g id="_39._BUILDINGS" data-name="39. BUILDINGS" transform="translate(-1142.399 -3928.937)"><g id="Group_7091" data-name="Group 7091" transform="translate(1142.399 3928.937)"><path id="Path_11658" fill="#ffe97f" d="M1321,4068.753c-1.031,11.283-7,22.587-8.533,23.906-1.605,1.379-4.312.6-6.235.6H1153.846l-.088-.171c-3.782-7.092-8.082-13.975-10.227-21.909-5.976-22.1,13.068-37.046,25.38-51.19,7.048-8.1,7.583-19.758,13.682-28.4,8.353-11.84,22.476-18.009,35.959-18.971,15.5-1.108,28.673,4.873,38.086,18.323,7.746,11.066,12.158,28.194,24.328,34.852,4.363,2.387,9.421,2.68,14.149,4.039C1310.535,4034.258,1322.591,4051.366,1321,4068.753Z" data-name="Path 11658" transform="translate(-1142.399 -3954.316)"/><line id="Line_67" x2="3.802" fill="#e5eefd" stroke="#717791" stroke-linecap="round" stroke-linejoin="round" stroke-width="2.254" data-name="Line 67" transform="translate(175.998 139.231)"/><line id="Line_68" x2="158.014" fill="#e5eefd" stroke="#717791" stroke-linecap="round" stroke-linejoin="round" stroke-width="2.426" data-name="Line 68" transform="translate(15.191 139.231)"/><line id="Line_69" x2=".556" fill="#e5eefd" stroke="#717791" stroke-linecap="round" stroke-linejoin="round" stroke-width="2.057" data-name="Line 69" transform="translate(10.99 139.231)"/><line id="Line_70" x2="2.767" fill="#e5eefd" stroke="#717791" stroke-linecap="round" stroke-linejoin="round" stroke-width="2.097" data-name="Line 70" transform="translate(4.152 139.231)"/><line id="Line_71" x2="53.297" fill="#e5eefd" stroke="#717791" stroke-linecap="round" stroke-linejoin="round" stroke-width="2.426" data-name="Line 71" transform="translate(73.5 148.314)"/><line id="Line_72" x2="13.657" fill="#e5eefd" stroke="#717791" stroke-linecap="round" stroke-linejoin="round" stroke-width="2.097" data-name="Line 72" transform="translate(54.776 148.314)"/><circle id="Ellipse_511" cx="2.04" cy="2.04" r="2.04" fill="#e5eefd" data-name="Ellipse 511" transform="translate(23.709)"/><circle id="Ellipse_512" cx="3.924" cy="3.924" r="3.924" fill="#e5eefd" data-name="Ellipse 512" transform="translate(137.525 48.899)"/><circle id="Ellipse_513" cx="4.611" cy="4.611" r="4.611" fill="#e5eefd" data-name="Ellipse 513" transform="translate(91.667 9.332)"/><circle id="Ellipse_514" cx="3.139" cy="3.139" r="3.139" fill="#e5eefd" data-name="Ellipse 514" transform="translate(156.938 61.264)"/><circle id="Ellipse_515" cx="2.668" cy="2.668" r="2.668" fill="#e5eefd" data-name="Ellipse 515" transform="translate(155.046 21.198)"/><circle id="Ellipse_516" cx="2.668" cy="2.668" r="2.668" fill="#e5eefd" data-name="Ellipse 516" transform="translate(118.986 6.094)"/><path id="Path_11659" fill="#e5eefd" d="M1168.3,4022.746a4.779,4.779,0,0,0,4.659.757,4.636,4.636,0,0,0,1.782-1.336,7.235,7.235,0,0,0,1.2-6.614c-.763-2.447-2.983-4.7-5.247-4.223-2.03.426-4.618,3.295-5.115,5.724C1165.125,4019.267,1166.842,4021.679,1168.3,4022.746Z" data-name="Path 11659" transform="translate(-1150.286 -3960.938)"/></g><g id="Group_7092" data-name="Group 7092" transform="translate(1307.844 4014.503)"><path id="Path_11660" fill="#ffd300" d="M1419.107,4093.088h0a2.8,2.8,0,0,1-2.794-2.623l-.53-8.348h6.648l-.53,8.348A2.8,2.8,0,0,1,1419.107,4093.088Z" data-name="Path 11660" transform="translate(-1413.915 -4077.309)"/><path id="Path_11661" fill="none" stroke="#717791" stroke-linecap="round" stroke-linejoin="round" stroke-width="1.881" d="M1415.783,4082.118h6.648l-.53,8.348a2.8,2.8,0,0,1-2.794,2.623h0a2.8,2.8,0,0,1-2.794-2.623l-.355-5.588" data-name="Path 11661" transform="translate(-1413.915 -4077.309)"/><line id="Line_73" y2="5.466" fill="#fff" stroke="#717791" stroke-linecap="round" stroke-linejoin="round" stroke-width="1.881" data-name="Line 73" transform="translate(5.192 5.475)"/><line id="Line_74" x2="5.576" fill="#fff" stroke="#717791" stroke-linecap="round" stroke-linejoin="round" stroke-width="1.881" data-name="Line 74" transform="translate(2.404 13.236)"/><line id="Line_75" y2="25.596" fill="#fff" stroke="#717791" stroke-linecap="round" stroke-linejoin="round" stroke-width="1.881" data-name="Line 75" transform="translate(5.192 16.046)"/><path id="Rectangle_1671" fill="#e5eefd" stroke="#717791" stroke-linecap="round" stroke-linejoin="round" stroke-width="1.881" d="M1.526,0h0A1.526,1.526,0,0,1,3.051,1.526V11.769a0,0,0,0,1,0,0H0a0,0,0,0,1,0,0V1.526A1.526,1.526,0,0,1,1.526,0Z" data-name="Rectangle 1671" transform="translate(3.666 41.46)"/><path id="Path_11662" fill="#fff" stroke="#717791" stroke-linecap="round" stroke-linejoin="round" stroke-width="1.881" d="M1423.331,4080.009h-10.384a5.192,5.192,0,0,1,10.384,0Z" data-name="Path 11662" transform="translate(-1412.947 -4074.817)"/></g><g id="Group_7094" data-name="Group 7094" transform="translate(1181.031 3954.331)"><rect id="Rectangle_1672" width="63.114" height="104.919" fill="#fff" data-name="Rectangle 1672" transform="translate(2.082 5.906)"/><rect id="Rectangle_1673" width="63.115" height="2.954" fill="#d0def4" data-name="Rectangle 1673" transform="translate(2.081 5.906)"/><path id="Path_11663" fill="none" stroke="#717791" stroke-linecap="round" stroke-linejoin="round" stroke-width="2.382" d="M1273.974,4077.478v24.308H1210.86v-96.348" data-name="Path 11663" transform="translate(-1208.778 -3990.961)"/><path id="Path_11664" fill="none" stroke="#717791" stroke-linecap="round" stroke-linejoin="round" stroke-width="2.382" d="M1210.86,3992.425h63.114v73.286" data-name="Path 11664" transform="translate(-1208.778 -3986.518)"/><rect id="Rectangle_1674" width="67.278" height="5.906" fill="#fff" stroke="#717791" stroke-linecap="round" stroke-linejoin="round" stroke-width="2.211" data-name="Rectangle 1674"/><rect id="Rectangle_1675" width="67.278" height="2.953" fill="#fff" stroke="#717791" stroke-linecap="round" stroke-linejoin="round" stroke-width="2.211" data-name="Rectangle 1675" transform="translate(0 110.919)"/><path id="Path_11665" fill="#fff" stroke="#717791" stroke-linecap="round" stroke-linejoin="round" stroke-width="2.211" d="M1218.287,4037.391v-2.714h23.721v2.714h-19.37" data-name="Path 11665" transform="translate(-1211.313 -4000.942)"/><rect id="Rectangle_1676" width="19.986" height="22.653" fill="#fff" stroke="#717791" stroke-linecap="round" stroke-linejoin="round" stroke-width="2.211" data-name="Rectangle 1676" transform="translate(8.841 11.082)"/><rect id="Rectangle_1677" width="13.937" height="15.863" fill="#fff" stroke="#717791" stroke-linecap="round" stroke-linejoin="round" stroke-width="2.211" data-name="Rectangle 1677" transform="translate(11.865 14.477)"/><line id="Line_76" x2="7.513" fill="#fff" stroke="#717791" stroke-linecap="round" stroke-linejoin="round" stroke-width="2.211" data-name="Line 76" transform="translate(18.289 22.408)"/><line id="Line_77" x2="3.493" fill="#fff" stroke="#717791" stroke-linecap="round" stroke-linejoin="round" stroke-width="2.321" data-name="Line 77" transform="translate(12.017 22.408)"/><rect id="Rectangle_1678" width="23.721" height="2.714" fill="#fff" stroke="#717791" stroke-linecap="round" stroke-linejoin="round" stroke-width="2.211" data-name="Rectangle 1678" transform="translate(35.984 33.735)"/><path id="Path_11666" fill="#fff" stroke="#717791" stroke-linecap="round" stroke-linejoin="round" stroke-width="2.211" d="M1265.168,4019.187v-18.9h19.986v22.653h-19.986" data-name="Path 11666" transform="translate(-1227.317 -3989.201)"/><rect id="Rectangle_1679" width="13.937" height="15.863" fill="#ffd300" stroke="#717791" stroke-linecap="round" stroke-linejoin="round" stroke-width="2.211" data-name="Rectangle 1679" transform="translate(40.875 14.477)"/><line id="Line_78" x1="13.937" fill="#fff" stroke="#717791" stroke-linecap="round" stroke-linejoin="round" stroke-width="2.211" data-name="Line 78" transform="translate(40.875 25.694)"/><rect id="Rectangle_1680" width="23.721" height="2.714" fill="#fff" stroke="#717791" stroke-linecap="round" stroke-linejoin="round" stroke-width="2.211" data-name="Rectangle 1680" transform="translate(6.974 64.778)"/><rect id="Rectangle_1681" width="19.986" height="22.653" fill="#fff" stroke="#717791" stroke-linecap="round" stroke-linejoin="round" stroke-width="2.211" data-name="Rectangle 1681" transform="translate(8.841 42.125)"/><rect id="Rectangle_1682" width="13.937" height="15.863" fill="#ffd300" stroke="#717791" stroke-linecap="round" stroke-linejoin="round" stroke-width="2.211" data-name="Rectangle 1682" transform="translate(11.865 45.52)"/><line id="Line_79" x2="11.525" fill="#fff" stroke="#717791" stroke-linecap="round" stroke-linejoin="round" stroke-width="2.211" data-name="Line 79" transform="translate(14.277 53.452)"/><rect id="Rectangle_1683" width="23.721" height="2.714" fill="#fff" stroke="#717791" stroke-linecap="round" stroke-linejoin="round" stroke-width="2.211" data-name="Rectangle 1683" transform="translate(35.984 64.778)"/><rect id="Rectangle_1684" width="19.986" height="22.653" fill="#fff" stroke="#717791" stroke-linecap="round" stroke-linejoin="round" stroke-width="2.211" data-name="Rectangle 1684" transform="translate(37.851 42.125)"/><rect id="Rectangle_1685" width="13.937" height="15.863" fill="#fff" stroke="#717791" stroke-linecap="round" stroke-linejoin="round" stroke-width="2.211" data-name="Rectangle 1685" transform="translate(40.875 45.52)"/><line id="Line_80" x1="11.307" fill="#fff" stroke="#717791" stroke-linecap="round" stroke-linejoin="round" stroke-width="2.211" data-name="Line 80" transform="translate(40.875 50.166)"/><rect id="Rectangle_1686" width="23.721" height="2.714" fill="#fff" stroke="#717791" stroke-linecap="round" stroke-linejoin="round" stroke-width="2.211" data-name="Rectangle 1686" transform="translate(35.984 94.992)"/><rect id="Rectangle_1687" width="19.986" height="22.653" fill="#fff" stroke="#717791" stroke-linecap="round" stroke-linejoin="round" stroke-width="2.211" data-name="Rectangle 1687" transform="translate(37.851 72.339)"/><rect id="Rectangle_1688" width="13.937" height="15.863" fill="#fff" stroke="#717791" stroke-linecap="round" stroke-linejoin="round" stroke-width="2.211" data-name="Rectangle 1688" transform="translate(40.875 75.734)"/><line id="Line_81" x1="13.937" fill="#fff" stroke="#717791" stroke-linecap="round" stroke-linejoin="round" stroke-width="2.211" data-name="Line 81" transform="translate(40.876 83.666)"/><g id="Group_7093" data-name="Group 7093" transform="translate(5.369 72.339)"><path id="Path_11667" fill="#fff" stroke="#717791" stroke-linecap="round" stroke-linejoin="round" stroke-width="2.211" d="M1241.439,4147.381h1.868v2.714h-27.456v-2.714h1.6" data-name="Path 11667" transform="translate(-1215.851 -4111.754)"/><path id="Path_11668" fill="#fff" stroke="#717791" stroke-linecap="round" stroke-linejoin="round" stroke-width="2.211" d="M1236.287,4145.975h-17.6v-2.714h23.72v2.714h-1.5" data-name="Path 11668" transform="translate(-1216.819 -4110.347)"/><rect id="Rectangle_1689" width="19.986" height="32.913" fill="#e5eefd" stroke="#717791" stroke-linecap="round" stroke-linejoin="round" stroke-width="2.211" data-name="Rectangle 1689" transform="translate(3.735)"/><path id="Path_11669" fill="#e5eefd" stroke="#717791" stroke-linecap="round" stroke-linejoin="round" stroke-width="2.211" d="M1226.114,4123.161v-24.718h13.937v28.93" data-name="Path 11669" transform="translate(-1219.354 -4095.048)"/></g><circle id="Ellipse_517" cx=".6" cy=".6" r=".6" fill="#fff" stroke="#717791" stroke-linecap="round" stroke-linejoin="round" stroke-width="2.211" data-name="Ellipse 517" transform="translate(23.245 89.987)"/></g><g id="Group_7096" data-name="Group 7096" transform="translate(1240.028 3977.778)"><rect id="Rectangle_1690" width="56.89" height="82.357" fill="#e5eefd" data-name="Rectangle 1690" transform="translate(1.874 5.321)"/><rect id="Rectangle_1691" width="56.89" height="2.663" fill="#d0def4" data-name="Rectangle 1691" transform="translate(1.874 5.321)"/><rect id="Rectangle_1692" width="56.89" height="2.663" fill="#d0def4" data-name="Rectangle 1692" transform="translate(1.874 47.097)"/><path id="Path_11670" fill="none" stroke="#717791" stroke-linecap="round" stroke-linejoin="round" stroke-width="2.382" d="M1369.719,4091.588v21.91H1312.83V4038.87" data-name="Path 11670" transform="translate(-1310.954 -4025.82)"/><path id="Path_11671" fill="none" stroke="#717791" stroke-linecap="round" stroke-linejoin="round" stroke-width="2.382" d="M1312.83,4027.139h56.889v53.842" data-name="Path 11671" transform="translate(-1310.954 -4021.816)"/><rect id="Rectangle_1693" width="60.642" height="5.324" fill="#fff" stroke="#717791" stroke-linecap="round" stroke-linejoin="round" stroke-width="2.211" data-name="Rectangle 1693"/><rect id="Rectangle_1694" width="60.642" height="5.324" fill="#fff" stroke="#717791" stroke-linecap="round" stroke-linejoin="round" stroke-width="2.211" data-name="Rectangle 1694" transform="translate(0 42.007)"/><rect id="Rectangle_1695" width="60.642" height="2.662" fill="#fff" stroke="#717791" stroke-linecap="round" stroke-linejoin="round" stroke-width="2.211" data-name="Rectangle 1695" transform="translate(0 87.764)"/><rect id="Rectangle_1696" width="21.381" height="2.447" fill="#fff" stroke="#717791" stroke-linecap="round" stroke-linejoin="round" stroke-width="2.211" data-name="Rectangle 1696" transform="translate(6.286 33.959)"/><rect id="Rectangle_1697" width="18.015" height="20.419" fill="#fff" stroke="#717791" stroke-linecap="round" stroke-linejoin="round" stroke-width="2.211" data-name="Rectangle 1697" transform="translate(7.969 13.541)"/><rect id="Rectangle_1698" width="12.562" height="14.299" fill="#fff" stroke="#717791" stroke-linecap="round" stroke-linejoin="round" stroke-width="2.211" data-name="Rectangle 1698" transform="translate(10.695 16.601)"/><line id="Line_82" x2="10.388" fill="#fff" stroke="#717791" stroke-linecap="round" stroke-linejoin="round" stroke-width="2.211" data-name="Line 82" transform="translate(12.869 23.75)"/><rect id="Rectangle_1699" width="21.381" height="2.447" fill="#fff" stroke="#717791" stroke-linecap="round" stroke-linejoin="round" stroke-width="2.211" data-name="Rectangle 1699" transform="translate(32.434 33.959)"/><rect id="Rectangle_1700" width="18.015" height="20.419" fill="#fff" stroke="#717791" stroke-linecap="round" stroke-linejoin="round" stroke-width="2.211" data-name="Rectangle 1700" transform="translate(34.117 13.541)"/><rect id="Rectangle_1701" width="12.562" height="14.299" fill="#fff" stroke="#717791" stroke-linecap="round" stroke-linejoin="round" stroke-width="2.211" data-name="Rectangle 1701" transform="translate(36.844 16.601)"/><line id="Line_83" x1="10.191" fill="#fff" stroke="#717791" stroke-linecap="round" stroke-linejoin="round" stroke-width="2.211" data-name="Line 83" transform="translate(36.844 20.789)"/><rect id="Rectangle_1702" width="21.381" height="2.447" fill="#fff" stroke="#717791" stroke-linecap="round" stroke-linejoin="round" stroke-width="2.211" data-name="Rectangle 1702" transform="translate(32.434 73.408)"/><rect id="Rectangle_1703" width="18.015" height="20.419" fill="#fff" stroke="#717791" stroke-linecap="round" stroke-linejoin="round" stroke-width="2.211" data-name="Rectangle 1703" transform="translate(34.117 52.989)"/><rect id="Rectangle_1704" width="12.562" height="14.299" fill="#fff" stroke="#717791" stroke-linecap="round" stroke-linejoin="round" stroke-width="2.211" data-name="Rectangle 1704" transform="translate(36.844 56.049)"/><line id="Line_84" x1="12.562" fill="#fff" stroke="#717791" stroke-linecap="round" stroke-linejoin="round" stroke-width="2.211" data-name="Line 84" transform="translate(36.844 63.198)"/><g id="Group_7095" data-name="Group 7095" transform="translate(4.839 52.989)"><path id="Path_11672" fill="#fff" stroke="#717791" stroke-linecap="round" stroke-linejoin="round" stroke-width="2.211" d="M1340.393,4148.266h1.683v2.447h-24.748v-2.447h1.446" data-name="Path 11672" transform="translate(-1317.329 -4116.153)"/><path id="Path_11673" fill="#fff" stroke="#717791" stroke-linecap="round" stroke-linejoin="round" stroke-width="2.211" d="M1335.749,4147h-15.864v-2.447h21.381V4147h-1.354" data-name="Path 11673" transform="translate(-1318.202 -4114.885)"/><rect id="Rectangle_1705" width="18.015" height="29.667" fill="#fff" stroke="#717791" stroke-linecap="round" stroke-linejoin="round" stroke-width="2.211" data-name="Rectangle 1705" transform="translate(3.367)"/><path id="Path_11674" fill="#fff" stroke="#717791" stroke-linecap="round" stroke-linejoin="round" stroke-width="2.211" d="M1326.579,4126.435v-22.28h12.562v26.077" data-name="Path 11674" transform="translate(-1320.487 -4101.095)"/></g><circle id="Ellipse_518" cx=".541" cy=".541" r=".541" fill="#fff" stroke="#717791" stroke-linecap="round" stroke-linejoin="round" stroke-width="2.211" data-name="Ellipse 518" transform="translate(20.952 68.896)"/></g><g id="Group_7097" data-name="Group 7097" transform="translate(1155.903 4037.179)"><rect id="Rectangle_1706" width="2.081" height="6.95" fill="#e5eefd" data-name="Rectangle 1706" transform="translate(6.584 23.5)"/><path id="Path_11675" fill="#b7caeb" d="M1172.9,4144.925v2.783a8.274,8.274,0,0,0,1.039.069,7.652,7.652,0,0,0,1.043-.073v-2.779Z" data-name="Path 11675" transform="translate(-1166.314 -4121.425)"/><rect id="Rectangle_1707" width="2.08" height="6.948" fill="none" stroke="#717791" stroke-linecap="round" stroke-linejoin="round" stroke-width="2.109" data-name="Rectangle 1707" transform="translate(8.664 30.448) rotate(180)"/><path id="Path_11676" fill="#fff" d="M1178.15,4131.155a7.611,7.611,0,1,1-.039-.78A7.625,7.625,0,0,1,1178.15,4131.155Z" data-name="Path 11676" transform="translate(-1162.902 -4114.123)"/><path id="Path_11677" fill="#ffd300" d="M1178.69,4132.776a7.624,7.624,0,0,1-14.167,3.916c-.026-.258-.039-.521-.039-.788a7.452,7.452,0,1,1,14.205-3.128Z" data-name="Path 11677" transform="translate(-1163.442 -4115.744)"/><path id="Path_11678" fill="none" stroke="#717791" stroke-linecap="round" stroke-linejoin="round" stroke-width="2.109" d="M1170.526,4123.532a7.618,7.618,0,1,0,7,4.6" data-name="Path 11678" transform="translate(-1162.902 -4114.122)"/><path id="Path_11679" fill="none" stroke="#717791" stroke-linecap="round" stroke-linejoin="round" stroke-width="1.852" d="M1182.819,4127.118a7.622,7.622,0,0,0-.751-.75" data-name="Path 11679" transform="translate(-1169.445 -4115.09)"/><rect id="Rectangle_1708" width="3.012" height="10.058" fill="#e5eefd" data-name="Rectangle 1708" transform="translate(19.414 20.392)"/><path id="Path_11680" fill="#b7caeb" d="M1195.389,4140.206v4.028a12.08,12.08,0,0,1-1.5.1,10.975,10.975,0,0,1-1.509-.106v-4.021Z" data-name="Path 11680" transform="translate(-1172.964 -4119.814)"/><rect id="Rectangle_1709" width="3.01" height="10.055" fill="none" stroke="#717791" stroke-linecap="round" stroke-linejoin="round" stroke-width="2.109" data-name="Rectangle 1709" transform="translate(19.415 20.392)"/><path id="Path_11681" fill="#fff" d="M1199.979,4120.278a11.011,11.011,0,1,1-.056-1.129A11.261,11.261,0,0,1,1199.979,4120.278Z" data-name="Path 11681" transform="translate(-1168.026 -4109.246)"/><path id="Path_11682" fill="#ffd300" d="M1200.761,4122.625a11.034,11.034,0,0,1-20.5,5.668,11.413,11.413,0,0,1-.057-1.142,11.032,11.032,0,0,1,20.5-5.656A11.307,11.307,0,0,1,1200.761,4122.625Z" data-name="Path 11682" transform="translate(-1168.808 -4111.592)"/><path id="Path_11683" fill="none" stroke="#717791" stroke-linecap="round" stroke-linejoin="round" stroke-width="2.109" d="M1184.869,4110.022a11.026,11.026,0,1,1-6.052,5.874" data-name="Path 11683" transform="translate(-1168.026 -4109.245)"/></g><path id="Path_11684" fill="none" stroke="#717791" stroke-linecap="round" stroke-linejoin="round" stroke-width="1.852" d="M1173.4,4107.793a12.057,12.057,0,0,1,1.18-1.18" data-name="Path 11684" transform="translate(-10.583 -68.458)"/><g id="Group_7098" data-name="Group 7098" transform="translate(1293.338 4052.408)"><path id="Path_11685" fill="#a9ebc8" d="M1393.021,4140.885a6.575,6.575,0,0,1-1.227-.459c-1.334-.716-1.048-2.086.251-2.845,2.6-1.52,6.835-.261,8.412,4.568a9.811,9.811,0,0,1,1.159-7.11c1.743-2.894,4.059-3.006,5.294-2.327a2.332,2.332,0,0,1,1.134,2.711c-.42,1.147-1.741,1.623-2.718,2.354a5.184,5.184,0,0,0-1.861,5.374c.145-3,4.9-3.966,6.123-3.781a1.654,1.654,0,0,1,.977,2.9c-.8.86-1.944,1.012-2.99,1.395-2.749,1.006-3.584,3.586-5.8,3.986a2.367,2.367,0,0,1-2.144-.725,9.286,9.286,0,0,1-.743-1.5A10.5,10.5,0,0,0,1393.021,4140.885Z" data-name="Path 11685" transform="translate(-1390.922 -4132.368)"/><path id="Path_11686" fill="none" stroke="#717791" stroke-linecap="round" stroke-linejoin="round" stroke-width=".928" d="M1408.332,4139.55c-1.18,2.7-1.146,5.571-.8,8.547" data-name="Path 11686" transform="translate(-1396.52 -4134.819)"/><path id="Path_11687" fill="none" stroke="#717791" stroke-linecap="round" stroke-linejoin="round" stroke-width=".928" d="M1400.178,4145.827c1.911.912,3.343,2.48,3.738,5.788" data-name="Path 11687" transform="translate(-1394.082 -4136.962)"/><path id="Path_11688" fill="none" stroke="#717791" stroke-linecap="round" stroke-linejoin="round" stroke-width=".928" d="M1412.195,4147.956a4.629,4.629,0,0,0-2.617,3.013" data-name="Path 11688" transform="translate(-1397.29 -4137.689)"/></g><g id="Group_7099" data-name="Group 7099" transform="translate(1175.451 4055.825)"><path id="Path_11689" fill="#a9ebc8" d="M1198.111,4144.174a5.162,5.162,0,0,1-.954-.357c-1.037-.557-.813-1.621.2-2.211,2.019-1.181,5.311-.2,6.536,3.55a7.621,7.621,0,0,1,.9-5.525c1.354-2.249,3.154-2.337,4.114-1.809a1.813,1.813,0,0,1,.881,2.107c-.327.89-1.353,1.26-2.112,1.829a4.028,4.028,0,0,0-1.446,4.176c.113-2.333,3.8-3.082,4.758-2.937a1.285,1.285,0,0,1,.759,2.256,5.316,5.316,0,0,1-2.323,1.084c-2.137.782-2.785,2.786-4.507,3.1a1.837,1.837,0,0,1-1.666-.562,7.289,7.289,0,0,1-.578-1.164A8.154,8.154,0,0,0,1198.111,4144.174Z" data-name="Path 11689" transform="translate(-1196.48 -4137.555)"/><path id="Path_11690" fill="none" stroke="#717791" stroke-linecap="round" stroke-linejoin="round" stroke-width=".721" d="M1210.009,4143.136a12.6,12.6,0,0,0-.624,6.642" data-name="Path 11690" transform="translate(-1200.83 -4139.46)"/><path id="Path_11691" fill="none" stroke="#717791" stroke-linecap="round" stroke-linejoin="round" stroke-width=".721" d="M1203.672,4148.013c1.485.709,2.6,1.928,2.905,4.5" data-name="Path 11691" transform="translate(-1198.935 -4141.125)"/><path id="Path_11692" fill="none" stroke="#717791" stroke-linecap="round" stroke-linejoin="round" stroke-width=".721" d="M1213.01,4149.667a3.6,3.6,0,0,0-2.032,2.342" data-name="Path 11692" transform="translate(-1201.428 -4141.689)"/></g></g></svg>