<svg xmlns="http://www.w3.org/2000/svg" width="182.8" height="143.151" viewBox="0 0 182.8 143.151"><g id="_05._FOLDER_FILES" data-name="05. FOLDER + FILES" transform="translate(-230.638 -567.319)"><g id="Group_7188" data-name="Group 7188" transform="translate(232.138 568.483)"><g id="Group_7170" data-name="Group 7170" opacity=".7" transform="translate(13.969 38.866)"><line id="Line_187" y2="3.725" fill="none" stroke="#c9d7ed" stroke-linecap="round" stroke-linejoin="round" stroke-width="2.328" data-name="Line 187" transform="translate(1.863)"/><line id="Line_188" x1="3.725" fill="none" stroke="#c9d7ed" stroke-linecap="round" stroke-linejoin="round" stroke-width="2.328" data-name="Line 188" transform="translate(0 1.863)"/></g><g id="Group_7171" data-name="Group 7171" opacity=".7" transform="translate(72.772)"><line id="Line_189" y2="2.502" fill="none" stroke="#c9d7ed" stroke-linecap="round" stroke-linejoin="round" stroke-width="2.328" data-name="Line 189" transform="translate(1.251)"/><line id="Line_190" x1="2.502" fill="none" stroke="#c9d7ed" stroke-linecap="round" stroke-linejoin="round" stroke-width="2.328" data-name="Line 190" transform="translate(0 1.251)"/></g><g id="Group_7172" data-name="Group 7172" opacity=".7" transform="translate(115.106 17.237)"><line id="Line_191" y2="5.146" fill="none" stroke="#c9d7ed" stroke-linecap="round" stroke-linejoin="round" stroke-width="2.328" data-name="Line 191" transform="translate(2.573)"/><line id="Line_192" x1="5.146" fill="none" stroke="#c9d7ed" stroke-linecap="round" stroke-linejoin="round" stroke-width="2.328" data-name="Line 192" transform="translate(0 2.573)"/></g><g id="Group_7173" data-name="Group 7173" opacity=".7" transform="translate(166.034 26.797)"><line id="Line_193" y2="2.969" fill="none" stroke="#c9d7ed" stroke-linecap="round" stroke-linejoin="round" stroke-width="2.328" data-name="Line 193" transform="translate(1.485)"/><line id="Line_194" x1="2.969" fill="none" stroke="#c9d7ed" stroke-linecap="round" stroke-linejoin="round" stroke-width="2.328" data-name="Line 194" transform="translate(0 1.485)"/></g><ellipse id="Ellipse_567" cx="1.21" cy="1.21" fill="none" stroke="#9fc3fd" stroke-linecap="round" stroke-linejoin="round" stroke-width="1.963" data-name="Ellipse 567" rx="1.21" ry="1.21" transform="translate(30.101 29.049)"/><ellipse id="Ellipse_568" cx="1.039" cy="1.039" fill="none" stroke="#c9d7ed" stroke-linecap="round" stroke-linejoin="round" stroke-width="2.328" data-name="Ellipse 568" rx="1.039" ry="1.039" transform="translate(135.954 32.222)"/><ellipse id="Ellipse_569" cx="1.039" cy="1.039" fill="none" stroke="#9fc3fd" stroke-linecap="round" stroke-linejoin="round" stroke-width="1.963" data-name="Ellipse 569" rx="1.039" ry="1.039" transform="translate(133.383 46.219)"/><rect id="Rectangle_1734" width="2.797" height="2.797" fill="none" stroke="#9fc3fd" stroke-linecap="round" stroke-linejoin="round" stroke-width="1.477" data-name="Rectangle 1734" transform="matrix(0.754, -0.657, 0.657, 0.754, 86.058, 16.137)"/><rect id="Rectangle_1735" width="2.797" height="2.797" fill="none" stroke="#c9d7ed" stroke-linecap="round" stroke-linejoin="round" stroke-width="2.328" data-name="Rectangle 1735" transform="matrix(0.754, -0.657, 0.657, 0.754, 160.622, 65.382)"/><rect id="Rectangle_1736" width="1.924" height="1.924" fill="none" stroke="#9fc3fd" stroke-linecap="round" stroke-linejoin="round" stroke-width="1.477" data-name="Rectangle 1736" transform="matrix(-0.264, -0.965, 0.965, -0.264, 135.088, 13.039)"/><path id="Path_11869" fill="#ffe97f" d="M412.623,682.866c-.885,9.051-6.007,18.119-7.323,19.176-1.377,1.107-3.7.479-5.351.479H269.174l-.076-.137c-3.246-5.689-6.935-11.21-8.776-17.575-5.129-17.727,11.215-29.717,21.78-41.064,6.049-6.5,6.508-15.849,11.742-22.784,7.168-9.5,19.288-14.445,30.859-15.218,13.3-.888,24.606,3.909,32.685,14.7,6.647,8.877,10.433,22.616,20.877,27.957,3.745,1.915,8.084,2.15,12.142,3.24C403.64,655.195,413.987,668.918,412.623,682.866Z" data-name="Path 11869" transform="translate(-244.56 -569.308)"/><path id="Rectangle_1737" fill="#3f72ba" d="M4.848,0h8.017a0,0,0,0,1,0,0V43.244a0,0,0,0,1,0,0H0a0,0,0,0,1,0,0V4.848A4.848,4.848,0,0,1,4.848,0Z" data-name="Rectangle 1737" opacity=".2" transform="translate(35.2 89.322)"/><path id="Path_11870" fill="none" stroke="#717791" stroke-linecap="round" stroke-linejoin="round" stroke-width="3" d="M276.47,566.873h-9.244a14.935,14.935,0,0,0-1.353-4.161,5.849,5.849,0,0,0-3.677-2.925,4.079,4.079,0,0,0-4.26,1.586,6.781,6.781,0,0,0-.6,4.266A3.928,3.928,0,0,0,256,562.277a3.174,3.174,0,0,0-3.517-.352,2.672,2.672,0,0,0-1.126,3.248,1.219,1.219,0,0,0-1.6-.493,2.147,2.147,0,0,0-1.073,1.448,3.585,3.585,0,0,0,.357,2.672H232.138" data-name="Path 11870" transform="translate(-232.138 -548.162)"/><path id="Path_11871" fill="none" stroke="#717791" stroke-linecap="round" stroke-linejoin="round" stroke-width="3" d="M505.132,615.64h6.6a10.63,10.63,0,0,1,.966-2.969,4.172,4.172,0,0,1,2.624-2.088,2.911,2.911,0,0,1,3.04,1.132,4.836,4.836,0,0,1,.431,3.044,2.8,2.8,0,0,1,.947-2.4,2.266,2.266,0,0,1,2.51-.251,1.907,1.907,0,0,1,.8,2.318.87.87,0,0,1,1.14-.352,1.534,1.534,0,0,1,.766,1.034,2.558,2.558,0,0,1-.255,1.907h12.066" data-name="Path 11871" transform="translate(-356.968 -571.411)"/><line id="Line_195" x2="3.05" fill="#e5eefd" stroke="#717791" stroke-linecap="round" stroke-linejoin="round" stroke-width="2.191" data-name="Line 195" transform="translate(166.006 133.521)"/><line id="Line_196" x2="136.764" fill="#e5eefd" stroke="#717791" stroke-linecap="round" stroke-linejoin="round" stroke-width="2.358" data-name="Line 196" transform="translate(27.001 133.521)"/><line id="Line_197" x2=".446" fill="#e5eefd" stroke="#717791" stroke-linecap="round" stroke-linejoin="round" stroke-width="2" data-name="Line 197" transform="translate(23.631 133.521)"/><line id="Line_198" x2="2.22" fill="#e5eefd" stroke="#717791" stroke-linecap="round" stroke-linejoin="round" stroke-width="2.038" data-name="Line 198" transform="translate(18.147 133.521)"/><line id="Line_199" x2="42.753" fill="#e5eefd" stroke="#717791" stroke-linecap="round" stroke-linejoin="round" stroke-width="2.358" data-name="Line 199" transform="translate(79.591 140.808)"/><line id="Line_200" x2="10.956" fill="#e5eefd" stroke="#717791" stroke-linecap="round" stroke-linejoin="round" stroke-width="2.038" data-name="Line 200" transform="translate(62.047 140.808)"/><path id="Path_11872" fill="none" stroke="#717791" stroke-linecap="round" stroke-linejoin="round" stroke-width="3" d="M386.745,731.842" data-name="Path 11872" transform="translate(-302.813 -626.872)"/><path id="Path_11873" fill="#93b9f4" d="M459.329,681.8c-.024.346-.041.692-.057,1.039" data-name="Path 11873" transform="translate(-335.966 -603.996)"/><g id="Group_7175" data-name="Group 7175" transform="translate(37.305 20.761)"><g id="Group_7174" data-name="Group 7174"><path id="Path_11874" fill="#f7faff" stroke="#717791" stroke-linecap="round" stroke-linejoin="round" stroke-width="3" d="M317.138,634.763,301.1,596.26a2.345,2.345,0,0,1,1.265-3.062l39.351-16.34a2.345,2.345,0,0,1,3.063,1.265l19.711,47.471a2.345,2.345,0,0,1-1.266,3.063L332.771,641.3" data-name="Path 11874" transform="translate(-300.924 -576.679)"/><path id="Path_11875" fill="none" stroke="#717791" stroke-linecap="round" stroke-linejoin="round" stroke-width="3" d="M321.765,645.874,301.1,596.26a2.345,2.345,0,0,1,1.265-3.062l39.351-16.34a2.345,2.345,0,0,1,3.063,1.265l19.711,47.471a2.345,2.345,0,0,1-1.266,3.063l-38.266,15.889" data-name="Path 11875" transform="translate(-300.924 -576.679)"/><line id="Line_201" x1="24.45" y2="10.152" fill="#e5eefd" stroke="#a3acd6" stroke-linecap="round" stroke-linejoin="round" stroke-width="2.5" data-name="Line 201" transform="translate(21.268 32.751)"/><line id="Line_202" x1="14.741" y2="6.121" fill="#e5eefd" stroke="#a3acd6" stroke-linecap="round" stroke-linejoin="round" stroke-width="2.5" data-name="Line 202" transform="translate(18.746 30.709)"/><line id="Line_203" x1="6.203" y2="2.576" fill="#e5eefd" stroke="#a3acd6" stroke-linecap="round" stroke-linejoin="round" stroke-width="2.5" data-name="Line 203" transform="translate(36.994 26.677)"/><line id="Line_204" x1="2.852" y2="1.184" fill="#e5eefd" stroke="#a3acd6" stroke-linecap="round" stroke-linejoin="round" stroke-width="2.5" data-name="Line 204" transform="translate(16.224 29.572)"/><line id="Line_205" x1="17.544" y2="7.284" fill="#e5eefd" stroke="#a3acd6" stroke-linecap="round" stroke-linejoin="round" stroke-width="2.5" data-name="Line 205" transform="translate(23.131 20.604)"/><line id="Line_206" x1="17.544" y2="7.284" fill="#e5eefd" stroke="#a3acd6" stroke-linecap="round" stroke-linejoin="round" stroke-width="2.5" data-name="Line 206" transform="translate(30.79 39.05)"/><line id="Line_207" x1="3.456" y2="1.435" fill="#e5eefd" stroke="#a3acd6" stroke-linecap="round" stroke-linejoin="round" stroke-width="2.5" data-name="Line 207" transform="translate(24.411 47.548)"/><line id="Line_208" x1="24.7" y2="10.256" fill="#e5eefd" stroke="#a3acd6" stroke-linecap="round" stroke-linejoin="round" stroke-width="2.5" data-name="Line 208" transform="translate(13.453 14.53)"/></g><path id="Path_11876" fill="#fff" d="M403.8,611.252l-9.164,40.69a2.345,2.345,0,0,1-2.8,1.768L350.277,644.3a2.345,2.345,0,0,1-1.769-2.8l11.346-50.133a2.345,2.345,0,0,1,2.8-1.768l32.166,7.28" data-name="Path 11876" transform="translate(-322.618 -582.551)"/><line id="Line_209" x2="9.017" y2="14.196" fill="#e5eefd" stroke="#717791" stroke-linecap="round" stroke-linejoin="round" stroke-width="3" data-name="Line 209" transform="translate(72.205 14.33)"/><path id="Path_11877" fill="none" stroke="#717791" stroke-linecap="round" stroke-linejoin="round" stroke-width="3" d="M403.8,611.252l-9.164,40.69a2.345,2.345,0,0,1-2.8,1.768L350.277,644.3a2.345,2.345,0,0,1-1.769-2.8l11.346-50.133a2.345,2.345,0,0,1,2.8-1.768l25.722,5.821" data-name="Path 11877" transform="translate(-322.618 -582.551)"/><path id="Path_11878" fill="none" stroke="#717791" stroke-linecap="round" stroke-linejoin="round" stroke-width="3.022" d="M431.57,603.044l-2.617,11.563,6.265,1.418" data-name="Path 11878" transform="translate(-359.365 -588.714)"/><line id="Line_210" x2="25.821" y2="5.844" fill="#e5eefd" stroke="#a3acd6" stroke-linecap="round" stroke-linejoin="round" stroke-width="2.5" data-name="Line 210" transform="translate(42.464 32.327)"/><line id="Line_211" x2="15.567" y2="3.523" fill="#e5eefd" stroke="#a3acd6" stroke-linecap="round" stroke-linejoin="round" stroke-width="2.5" data-name="Line 211" transform="translate(51.266 41.062)"/><line id="Line_212" x2="6.551" y2="1.483" fill="#e5eefd" stroke="#a3acd6" stroke-linecap="round" stroke-linejoin="round" stroke-width="2.5" data-name="Line 212" transform="translate(41.012 38.741)"/><line id="Line_213" x2="3.012" y2=".682" fill="#e5eefd" stroke="#a3acd6" stroke-linecap="round" stroke-linejoin="round" stroke-width="2.5" data-name="Line 213" transform="translate(62.37 50.317)"/><line id="Line_214" x2="18.527" y2="4.193" fill="#e5eefd" stroke="#a3acd6" stroke-linecap="round" stroke-linejoin="round" stroke-width="2.5" data-name="Line 214" transform="translate(39.561 45.155)"/><line id="Line_215" x2="18.527" y2="4.193" fill="#e5eefd" stroke="#a3acd6" stroke-linecap="round" stroke-linejoin="round" stroke-width="2.5" data-name="Line 215" transform="translate(43.969 25.675)"/><line id="Line_216" x2="3.65" y2=".826" fill="#e5eefd" stroke="#a3acd6" stroke-linecap="round" stroke-linejoin="round" stroke-width="2.5" data-name="Line 216" transform="translate(65.583 30.566)"/><line id="Line_217" x2="16.469" y2="3.727" fill="#e5eefd" stroke="#a3acd6" stroke-linecap="round" stroke-linejoin="round" stroke-width="2.5" data-name="Line 217" transform="translate(38.109 51.569)"/></g><rect id="Rectangle_1738" width="8.178" height="45.423" fill="#3f72ba" data-name="Rectangle 1738" opacity=".2" rx="4.033" transform="translate(63.63 48.178) rotate(-11.104)"/><g id="Group_7182" data-name="Group 7182" transform="translate(14.349 47.019)"><path id="Path_11879" fill="#fff" stroke="#717791" stroke-linecap="round" stroke-linejoin="round" stroke-width="4.4" d="M269.1,690.976l-10.515-52.782a2.616,2.616,0,0,1,2.055-3.077l49.029-9.767a2.417,2.417,0,0,1,2.843,1.9l13.1,65.775L271.69,703.767l-.856-4.233" data-name="Path 11879" transform="translate(-258.537 -625.303)"/><g id="Group_7177" data-name="Group 7177" transform="translate(11.361 10.468)"><g id="Group_7176" data-name="Group 7176" transform="translate(3.595 5.586)"><path id="Path_11880" fill="none" stroke="#ffd300" stroke-linecap="round" stroke-linejoin="round" stroke-width="4.722" d="M286.054,658.422l2.469,1.649,3.493-5.231" data-name="Path 11880" transform="translate(-286.054 -654.84)"/></g><path id="Path_11881" fill="none" stroke="#717791" stroke-linecap="round" stroke-linejoin="round" stroke-width="3" d="M292.2,656.056a6.38,6.38,0,1,1-3.151-5.65" data-name="Path 11881" transform="translate(-279.44 -646.83)"/><line id="Line_218" x2="12.011" y1="2.393" fill="#fff" stroke="#717791" stroke-linecap="round" stroke-linejoin="round" stroke-width="3.667" data-name="Line 218" transform="translate(17.654 1.594)"/><line id="Line_219" x2="15.512" y1="3.09" fill="#fff" stroke="#717791" stroke-linecap="round" stroke-linejoin="round" stroke-width="3.115" data-name="Line 219" transform="translate(18.557 5.427)"/><line id="Line_220" x2="5.546" y1="1.105" fill="#fff" stroke="#717791" stroke-linecap="round" stroke-linejoin="round" stroke-width="2.517" data-name="Line 220" transform="translate(32.119)"/></g><g id="Group_7179" data-name="Group 7179" transform="translate(15.306 30.269)"><g id="Group_7178" data-name="Group 7178" transform="translate(3.595 5.586)"><path id="Path_11882" fill="none" stroke="#ffd300" stroke-linecap="round" stroke-linejoin="round" stroke-width="4.722" d="M293.311,694.851l2.469,1.649,3.493-5.231" data-name="Path 11882" transform="translate(-293.311 -691.269)"/></g><path id="Path_11883" fill="none" stroke="#717791" stroke-linecap="round" stroke-linejoin="round" stroke-width="3" d="M299.458,692.485a6.381,6.381,0,1,1-3.151-5.65" data-name="Path 11883" transform="translate(-286.698 -683.259)"/><line id="Line_221" x2="12.011" y1="2.393" fill="#fff" stroke="#717791" stroke-linecap="round" stroke-linejoin="round" stroke-width="3.667" data-name="Line 221" transform="translate(17.654 1.594)"/><line id="Line_222" x2="15.512" y1="3.09" fill="#fff" stroke="#717791" stroke-linecap="round" stroke-linejoin="round" stroke-width="3.115" data-name="Line 222" transform="translate(18.557 5.427)"/><line id="Line_223" x2="5.546" y1="1.105" fill="#fff" stroke="#717791" stroke-linecap="round" stroke-linejoin="round" stroke-width="2.517" data-name="Line 223" transform="translate(32.118)"/></g><g id="Group_7181" data-name="Group 7181" transform="translate(19.251 50.069)"><g id="Group_7180" data-name="Group 7180" transform="translate(3.595 5.586)"><path id="Path_11884" fill="none" stroke="#ffd300" stroke-linecap="round" stroke-linejoin="round" stroke-width="4.722" d="M300.569,731.28l2.469,1.649,3.493-5.231" data-name="Path 11884" transform="translate(-300.569 -727.698)"/></g><path id="Path_11885" fill="none" stroke="#717791" stroke-linecap="round" stroke-linejoin="round" stroke-width="3" d="M306.715,728.914a6.38,6.38,0,1,1-3.151-5.65" data-name="Path 11885" transform="translate(-293.955 -719.688)"/><line id="Line_224" x2="12.011" y1="2.393" fill="#fff" stroke="#717791" stroke-linecap="round" stroke-linejoin="round" stroke-width="3.667" data-name="Line 224" transform="translate(17.654 1.594)"/><line id="Line_225" x2="15.512" y1="3.09" fill="#fff" stroke="#717791" stroke-linecap="round" stroke-linejoin="round" stroke-width="3.115" data-name="Line 225" transform="translate(18.557 5.427)"/><line id="Line_226" x2="5.546" y1="1.105" fill="#fff" stroke="#717791" stroke-linecap="round" stroke-linejoin="round" stroke-width="2.517" data-name="Line 226" transform="translate(32.118)"/></g><line id="Line_227" x2=".228" y2="1.187" fill="#fff" stroke="#717791" stroke-linecap="round" stroke-linejoin="round" stroke-width="2" data-name="Line 227" transform="translate(11.185 68.615)"/></g><g id="Group_7184" data-name="Group 7184" transform="translate(78.304 55.123)"><path id="Path_11886" fill="#fff" stroke="#717791" stroke-linecap="round" stroke-linejoin="round" stroke-width="2.97" d="M435.827,650.41l4.583,1.094a2.554,2.554,0,0,1,1.89,3.076l-13.775,57.712a2.553,2.553,0,0,1-3.076,1.891l-47.01-11.221a2.553,2.553,0,0,1-1.891-3.076l13.775-57.712a2.553,2.553,0,0,1,3.076-1.89l30.5,7.281" data-name="Path 11886" transform="translate(-376.478 -640.213)"/><path id="Path_11887" fill="#ffd300" d="M443.32,690.177l-5.461-8.938-14.038,8.14-4.378-5.871-6.491,3.722-6.606-9.848-7.226,4.26-1.594,4.148,1.077,1.247,41.889,10.383,1.234-1.025,1.132-4.513Z" data-name="Path 11887" transform="translate(-386.086 -657.18)"/><rect id="Rectangle_1739" width="25.776" height="45.472" fill="none" stroke="#717791" stroke-linecap="round" stroke-linejoin="round" stroke-width="2" data-name="Rectangle 1739" rx="3.127" transform="translate(11.231 29.962) rotate(-76.576)"/><path id="Path_11888" fill="none" stroke="#717791" stroke-linecap="round" stroke-linejoin="round" stroke-width="2" d="M400.378,678.6l6.151-3.781,6.391,10.406" data-name="Path 11888" transform="translate(-387.387 -656.009)"/><line id="Line_228" x2=".275" y2=".447" fill="none" stroke="#717791" stroke-linecap="round" stroke-linejoin="round" stroke-width="2" data-name="Line 228" transform="translate(24.398 27.366)"/><path id="Path_11889" fill="none" stroke="#717791" stroke-linecap="round" stroke-linejoin="round" stroke-width="2" d="M414.483,693.255l12.055-7.409,3.768,6.131" data-name="Path 11889" transform="translate(-393.826 -661.043)"/><path id="Path_11890" fill="none" stroke="#717791" stroke-linecap="round" stroke-linejoin="round" stroke-width="2" d="M440.144,691.472l1.982-1.214,13.915-8.557,6.56,10.673" data-name="Path 11890" transform="translate(-405.539 -659.151)"/><path id="Path_11898" fill="#ffd300" stroke="#717791" stroke-linecap="round" stroke-width="2" d="M4.239,0A4.239,4.239,0,1,1,0,4.239,4.239,4.239,0,0,1,4.239,0Z" data-name="Path 11898" transform="translate(23.838 11.782)"/><g id="Group_7183" data-name="Group 7183" transform="translate(8.979 37.597)"><line id="Line_229" x2="37.012" y2="8.834" fill="#e5eefd" stroke="#a3acd6" stroke-linecap="round" stroke-linejoin="round" stroke-width="2.5" data-name="Line 229" transform="translate(3.676 5.324)"/><line id="Line_230" x2="22.314" y2="5.326" fill="#e5eefd" stroke="#a3acd6" stroke-linecap="round" stroke-linejoin="round" stroke-width="2.5" data-name="Line 230" transform="translate(17.149 13.966)"/><line id="Line_231" x2="9.39" y2="2.241" fill="#e5eefd" stroke="#a3acd6" stroke-linecap="round" stroke-linejoin="round" stroke-width="2.5" data-name="Line 231" transform="translate(2.451 10.458)"/><line id="Line_232" x2="4.317" y2="1.03" fill="#e5eefd" stroke="#a3acd6" stroke-linecap="round" stroke-linejoin="round" stroke-width="2.5" data-name="Line 232" transform="translate(33.92 23.396)"/><line id="Line_233" x2="26.557" y2="6.339" fill="#e5eefd" stroke="#a3acd6" stroke-linecap="round" stroke-linejoin="round" stroke-width="2.5" data-name="Line 233" transform="translate(1.225 15.592)"/><line id="Line_234" x2="26.557" y2="6.339" fill="#e5eefd" stroke="#a3acd6" stroke-linecap="round" stroke-linejoin="round" stroke-width="2.5" data-name="Line 234" transform="translate(4.947)"/><line id="Line_235" x2="5.232" y2="1.249" fill="#e5eefd" stroke="#a3acd6" stroke-linecap="round" stroke-linejoin="round" stroke-width="2.5" data-name="Line 235" transform="translate(35.928 7.395)"/><line id="Line_236" x2="23.607" y2="5.635" fill="#e5eefd" stroke="#a3acd6" stroke-linecap="round" stroke-linejoin="round" stroke-width="2.5" data-name="Line 236" transform="translate(0 20.726)"/></g><line id="Line_237" x2=".261" y2=".062" fill="#fff" stroke="#717791" stroke-linecap="round" stroke-linejoin="round" stroke-width="2.286" data-name="Line 237" transform="translate(50.872 8.174)"/></g><g id="Group_7185" data-name="Group 7185" transform="translate(37.848 74.739)"><path id="Path_11891" fill="#3f72ba" d="M304.176,727.164l-.378-42.023c0-1.554,1.046-3.476,2.6-3.476h5.521a1.062,1.062,0,0,0,1.062-1.062v-2.5a1.8,1.8,0,0,1,1.8-1.8h18.546a1.8,1.8,0,0,1,1.8,1.8v2.5a1.062,1.062,0,0,0,1.063,1.062H375.7a2.814,2.814,0,0,1,2.814,2.813v46.214l-5.48-.439L327.45,694.312l-24.458,35.415Z" data-name="Path 11891" opacity=".2" transform="translate(-302.415 -676.303)"/><path id="Path_11892" fill="#e5eefd" d="M374.936,696.22l.638,34.717,11.188,2.544-1.032,2.841-4.79,1.646H302.333l-.4-44.841a4.277,4.277,0,0,1,4.309-4.246h4.087v-5.5H332.46v5.5h37.5c3.06,0,5.029-.193,5.222,6.14C375.213,696,374.936,695.184,374.936,696.22Z" data-name="Path 11892" transform="translate(-301.931 -679.534)"/><path id="Path_11893" fill="none" stroke="#717791" stroke-linecap="round" stroke-linejoin="round" stroke-width="2.7" d="M302.516,736.492V691.6a2.814,2.814,0,0,1,2.813-2.814h4.155a1.062,1.062,0,0,0,1.062-1.062v-3.045a1.8,1.8,0,0,1,1.8-1.8h18.547a1.8,1.8,0,0,1,1.8,1.8v3.045a1.062,1.062,0,0,0,1.062,1.062h38.756a2.814,2.814,0,0,1,2.813,2.814v5.8" data-name="Path 11893" transform="translate(-302.198 -679.307)"/><path id="Path_11894" fill="none" stroke="#717791" stroke-linecap="round" stroke-linejoin="round" stroke-width="2.7" d="M437.166,774.4" data-name="Path 11894" transform="translate(-363.661 -721.081)"/></g><path id="Path_11895" fill="none" stroke="#717791" stroke-linecap="round" stroke-linejoin="round" stroke-width="2.708" d="M448.627,750.729a4.38,4.38,0,0,1-.744,2.306,6.278,6.278,0,0,1-5,2.47h0a6.288,6.288,0,0,1-6.288-6.288V722.412" data-name="Path 11895" transform="translate(-325.612 -622.611)"/><g id="Group_7187" data-name="Group 7187" transform="translate(50.897 99.948)"><g id="Group_7186" data-name="Group 7186"><path id="Path_11896" fill="none" d="M353.766,725.8l.026,10.053a1.277,1.277,0,0,1-1.381,1.135H327.294a1.277,1.277,0,0,1-1.381-1.135v-12.1a1.277,1.277,0,0,1,1.381-1.135h19.44" data-name="Path 11896" transform="translate(-325.913 -722.617)"/><path id="Path_11897" fill="#fff" stroke="#a3acd6" stroke-linecap="round" stroke-linejoin="round" stroke-width="2.5" d="M353.757,722.617l.035,13.235a1.277,1.277,0,0,1-1.381,1.135H327.294a1.277,1.277,0,0,1-1.381-1.135v-12.1a1.277,1.277,0,0,1,1.381-1.135H342.84" data-name="Path 11897" transform="translate(-325.913 -722.617)"/><line id="Line_238" x2="15.606" fill="#e5eefd" stroke="#a3acd6" stroke-linecap="round" stroke-linejoin="round" stroke-width="2.5" data-name="Line 238" transform="translate(6.064 9.035)"/><line id="Line_239" x2="11.198" fill="#e5eefd" stroke="#a3acd6" stroke-linecap="round" stroke-linejoin="round" stroke-width="2.5" data-name="Line 239" transform="translate(6.064 5.731)"/><line id="Line_240" x2="2.206" fill="#e5eefd" stroke="#a3acd6" stroke-linecap="round" stroke-linejoin="round" stroke-width="2.5" data-name="Line 240" transform="translate(19.127 5.731)"/></g></g></g></g></svg>