<svg xmlns="http://www.w3.org/2000/svg" xmlns:xlink="http://www.w3.org/1999/xlink" width="180.819" height="166.609" viewBox="0 0 180.819 166.609">
  <defs>
    <clipPath id="clip-path">
      <path id="Path_11806" data-name="Path 11806" d="M897.178,3243.459a40.621,40.621,0,0,1,28.014,3.147l4.319-9.544-4.065-15.411s-19.214-5.18-19.476-5.049-13.247,12.263-13.247,12.263Z" transform="translate(-892.723 -3216.6)" fill="none"/>
    </clipPath>
  </defs>
  <g id="_30._SAVINGS_2" data-name="30. SAVINGS 2" transform="translate(-705.582 -3063.527)">
    <g id="Group_7155" data-name="Group 7155" transform="translate(706.602 3064.509)">
      <path id="Path_11773" data-name="Path 11773" d="M887.046,3238.123c-1.023,12.81-6.938,25.643-8.458,27.14-1.591,1.565-4.275.678-6.18.678H721.347l-.087-.194c-3.749-8.052-8.011-15.865-10.138-24.873-5.923-25.089,12.955-42.058,25.159-58.116,6.987-9.192,7.518-22.431,13.563-32.246a46.224,46.224,0,0,1,35.645-21.539c15.36-1.257,28.422,5.532,37.754,20.8,7.678,12.563,12.051,32.007,24.116,39.567,4.325,2.71,9.339,3.042,14.025,4.585C876.67,3198.961,888.621,3218.382,887.046,3238.123Z" transform="translate(-707.386 -3116.103)" fill="#ffd300" opacity="0.5"/>
      <g id="Group_7131" data-name="Group 7131" transform="translate(11.609 83.149)">
        <path id="Path_11774" data-name="Path 11774" d="M781.809,3283.881a3.173,3.173,0,0,1-.708,1.546,2.77,2.77,0,0,1-2.346.9,8.786,8.786,0,0,1-4.508-1.677c-4.923,3.554-26.162,4.554-37.062,1.292a11.766,11.766,0,0,0-3.9-.3c-.2.054-.362-1.046-.531-.916-4.646,3.631-11.469.123-4.308-6.808-.138-.639-.254-1.277-.346-1.923a31.973,31.973,0,0,1,13.023-29.885,20.966,20.966,0,0,1,3.6-2.023,19.487,19.487,0,0,1,3.331-1.131,24.134,24.134,0,0,1-1.169-3.154c-2.692-6.808-6.746-9.693-7.769-12.677a2.386,2.386,0,0,1,.5-2.339c1.485-1.823,4.554-3.292,8.7-1.485a37.443,37.443,0,0,0,7.369,2.8c2.662.554,5.769.462,10.608-.8a28.656,28.656,0,0,1,3.515-.677s-5.923,6.546-8.139,14.339c-.062.2-.138.392-.2.585,3.031.331,5.639,2.446,7.739,4.908,7.231,8.469,10.677,19.362,10.554,30.6,0,.338-.008.677-.015,1.015a25.771,25.771,0,0,0-.308,2.716C780.909,3280.319,782.063,3282.181,781.809,3283.881Z" transform="translate(-722.534 -3220.864)" fill="#ffd300"/>
        <path id="Path_11775" data-name="Path 11775" d="M781.1,3301.2a2.77,2.77,0,0,1-2.346.9,8.786,8.786,0,0,1-4.508-1.677c-4.923,3.554-26.162,4.554-37.062,1.292a11.766,11.766,0,0,0-3.9-.3c-.2.054-.362-1.046-.531-.916-4.646,3.631-11.469.123-4.308-6.808-.138-.639-.254-1.277-.346-1.923.715.815,1.108,1.931,2.423,3.554,2.054,2.515,20.223,9.316,34.577.646,6.762-4.085,11.523-5.162,14.662-5.138,0,.338-.008.677-.015,1.015a25.771,25.771,0,0,0-.308,2.716C781.378,3296.576,782.763,3299.176,781.1,3301.2Z" transform="translate(-722.534 -3236.637)" fill="#e5bd00"/>
        <path id="Path_11776" data-name="Path 11776" d="M781.708,3288.479c1.7,2.318,7.067,4.686,9.009,2.421,1.033-1.206,1.275-3.208-.982-5.862-2.4-2.821.441-.472-.731-10.807a44.268,44.268,0,0,0-10.742-24.606c-2.9-3.274-6.729-5.943-11.289-4.662" transform="translate(-732.141 -3225.977)" fill="none" stroke="#717791" stroke-linecap="round" stroke-linejoin="round" stroke-width="2.494"/>
        <path id="Path_11777" data-name="Path 11777" d="M734.155,3303.716c1.039.4,2.434,1.177,3,1.34,11.416,3.287,33.658,2.283,38.816-1.3" transform="translate(-724.569 -3239.61)" fill="none" stroke="#717791" stroke-linecap="round" stroke-linejoin="round" stroke-width="2.494"/>
        <path id="Path_11778" data-name="Path 11778" d="M727.081,3292.947c-.155.131-.315.259-.479.382-.321.24-1.174.908-1.478,1.16-7.892,6.53-.353,10.514,4.519,6.856.064-.048.128-.1.194-.144a2.709,2.709,0,0,0,.609-.591" transform="translate(-721.693 -3237.125)" fill="none" stroke="#717791" stroke-linecap="round" stroke-linejoin="round" stroke-width="2.494"/>
        <path id="Path_11779" data-name="Path 11779" d="M748.469,3245.277c-17.236,1.259-25.984,22.986-22.54,38.211" transform="translate(-722.5 -3226.125)" fill="none" stroke="#717791" stroke-linecap="round" stroke-linejoin="round" stroke-width="2.494"/>
        <path id="Path_11780" data-name="Path 11780" d="M746.576,3237.6c-4.252-5.917-7.972-9.976-9-12.868-1.066-3,4.555-5.912,10.563-3.392s10.441,5.846,20.256,3.392a31.336,31.336,0,0,1,3.682-.678s-6.2,6.59-8.529,14.44" transform="translate(-725.328 -3220.379)" fill="none" stroke="#717791" stroke-linecap="round" stroke-linejoin="round" stroke-width="2.676"/>
        <g id="Group_7130" data-name="Group 7130" transform="translate(21.325 28.306)">
          <path id="Path_11781" data-name="Path 11781" d="M766.48,3264.765c-.439.78-2.1.717-4.789.717-.2,1.922-.494,3.8-.494,4.631,1.736,1.315,2.986,1.349,3.478,2.374a3.505,3.505,0,0,1-.923,4.524,10.412,10.412,0,0,1-3.379,1.673c-.142,1.957-.443,4.681-.362,5.275.235,1.724.425,1.958.124,2.34a2.236,2.236,0,0,1-3.124.082c-.875-1.121-.1-3.577-.1-6.263-3.987.873-6.086,1.552-7.261.231-.6-.675-.1-2.338,2.035-2.818,1.971-.443,5.489-.38,5.489-1.121a41.376,41.376,0,0,0,.495-4.879c-1.98-.984-5.8-1.691-5.8-4.878,0-1.549,3.489-3.272,6.609-3.726.051-.508.033-1.187.033-4.268,0-1.176,2.315-2.111,3.371-.948s.025,3.888.025,4.672c.335,0,.858.007,1.17-.016.968-.066.982-.28,1.9-.28C766.939,3262.086,766.858,3264.09,766.48,3264.765Zm-8.282,1.31a5.46,5.46,0,0,0-2.357,1.038,10.1,10.1,0,0,0,2.142,1.236Zm2.827,7.195c-.1-.094-.152-.135-.141-.124-.092.679-.2,1.527-.247,2.208C761.36,3274.632,762.82,3274.871,761.025,3273.27Z" transform="translate(-749.414 -3257.177)" fill="#fff"/>
        </g>
        <path id="Path_11782" data-name="Path 11782" d="M790.913,3284.525H774.367a9.573,9.573,0,0,1-9.577-9.577v-48.2c2.661.554,5.769.462,10.608-.8a28.658,28.658,0,0,1,3.516-.677s-5.923,6.546-8.139,14.339c-.062.2-.138.392-.2.585,3.031.331,5.639,2.446,7.739,4.908,7.231,8.469,10.677,19.362,10.554,30.6,0,.338-.008.677-.015,1.015a25.755,25.755,0,0,0-.308,2.716C790.013,3280.963,791.167,3282.825,790.913,3284.525Z" transform="translate(-731.638 -3221.508)" fill="#3f72ba" opacity="0.2"/>
      </g>
      <path id="Path_11783" data-name="Path 11783" d="M795.438,3305.5h-8.368a1.594,1.594,0,0,1-1.581-1.388l-.751-5.77H797.77l-.751,5.77A1.594,1.594,0,0,1,795.438,3305.5Z" transform="translate(-736.31 -3155.221)" fill="#b8d4ff" stroke="#717791" stroke-linecap="round" stroke-linejoin="round" stroke-width="2.1"/>
      <path id="Path_11784" data-name="Path 11784" d="M795.438,3300.662h-8.368a1.593,1.593,0,0,1-1.581-1.389l-.751-5.77H797.77l-.751,5.77A1.594,1.594,0,0,1,795.438,3300.662Z" transform="translate(-736.31 -3154.104)" fill="#3f72ba" opacity="0.2"/>
      <path id="Path_11785" data-name="Path 11785" d="M907.731,3305.5h-8.369a1.593,1.593,0,0,1-1.58-1.388l-.751-5.77h13.03l-.75,5.77A1.594,1.594,0,0,1,907.731,3305.5Z" transform="translate(-779.005 -3155.221)" fill="#b8d4ff" stroke="#717791" stroke-linecap="round" stroke-linejoin="round" stroke-width="2.1"/>
      <path id="Path_11786" data-name="Path 11786" d="M907.731,3300.662h-8.369a1.593,1.593,0,0,1-1.58-1.389l-.751-5.77h13.03l-.75,5.77A1.594,1.594,0,0,1,907.731,3300.662Z" transform="translate(-779.005 -3154.104)" fill="#3f72ba" opacity="0.2"/>
      <circle id="Ellipse_533" data-name="Ellipse 533" cx="2.059" cy="2.059" r="2.059" transform="translate(61.271)" stroke-width="1.963" stroke="#9fc3fd" stroke-linecap="round" stroke-linejoin="round" fill="none"/>
      <circle id="Ellipse_534" data-name="Ellipse 534" cx="1.684" cy="1.684" r="1.684" transform="translate(17.545 36.681)" stroke-width="1.963" stroke="#9fc3fd" stroke-linecap="round" stroke-linejoin="round" fill="none"/>
      <g id="Group_7132" data-name="Group 7132" transform="translate(146.226 40.848)" opacity="0.7">
        <line id="Line_146" data-name="Line 146" x1="2.831" y2="8.282" transform="translate(2.725)" fill="none" stroke="#c9d7ed" stroke-linecap="round" stroke-linejoin="round" stroke-width="2.1"/>
        <line id="Line_147" data-name="Line 147" x1="8.282" y1="2.831" transform="translate(0 2.725)" fill="none" stroke="#c9d7ed" stroke-linecap="round" stroke-linejoin="round" stroke-width="2.328"/>
      </g>
      <g id="Group_7133" data-name="Group 7133" transform="translate(39.869 30.491)" opacity="0.7">
        <line id="Line_148" data-name="Line 148" x1="5.801" y2="6.554" transform="translate(0.377)" fill="none" stroke="#c9d7ed" stroke-linecap="round" stroke-linejoin="round" stroke-width="2.328"/>
        <line id="Line_149" data-name="Line 149" x1="6.554" y1="5.801" transform="translate(0 0.377)" fill="none" stroke="#c9d7ed" stroke-linecap="round" stroke-linejoin="round" stroke-width="2.328"/>
      </g>
      <circle id="Ellipse_535" data-name="Ellipse 535" cx="1.768" cy="1.768" r="1.768" transform="translate(171.658 51.154)" stroke-width="2.328" stroke="#c9d7ed" stroke-linecap="round" stroke-linejoin="round" fill="none"/>
      <circle id="Ellipse_536" data-name="Ellipse 536" cx="1.768" cy="1.768" r="1.768" transform="translate(79.099 31.08)" stroke-width="2.328" stroke="#c9d7ed" stroke-linecap="round" stroke-linejoin="round" fill="none"/>
      <circle id="Ellipse_537" data-name="Ellipse 537" cx="1.768" cy="1.768" r="1.768" transform="translate(173.087 81.649)" stroke-width="2.1" stroke="#c9d7ed" stroke-linecap="round" stroke-linejoin="round" fill="none"/>
      <circle id="Ellipse_538" data-name="Ellipse 538" cx="1.768" cy="1.768" r="1.768" transform="translate(21.027 74.982)" stroke-width="2.328" stroke="#c9d7ed" stroke-linecap="round" stroke-linejoin="round" fill="none"/>
      <circle id="Ellipse_539" data-name="Ellipse 539" cx="1.768" cy="1.768" r="1.768" transform="translate(151.475 25.037)" stroke-width="1.963" stroke="#9fc3fd" stroke-linecap="round" stroke-linejoin="round" fill="none"/>
      <rect id="Rectangle_1716" data-name="Rectangle 1716" width="4.757" height="4.757" transform="matrix(0.754, -0.657, 0.657, 0.754, 99.785, 28.072)" stroke-width="1.477" stroke="#9fc3fd" stroke-linecap="round" stroke-linejoin="round" fill="none"/>
      <line id="Line_150" data-name="Line 150" x2="4.316" transform="translate(169.354 150.915)" fill="#e5eefd" stroke="#717791" stroke-linecap="round" stroke-linejoin="round" stroke-width="2.191"/>
      <line id="Line_151" data-name="Line 151" x2="67.862" transform="translate(98.321 150.915)" fill="#e5eefd" stroke="#717791" stroke-linecap="round" stroke-linejoin="round" stroke-width="2.358"/>
      <line id="Line_152" data-name="Line 152" x2="117.852" transform="translate(12.532 150.915)" fill="#e5eefd" stroke="#717791" stroke-linecap="round" stroke-linejoin="round" stroke-width="2.358"/>
      <line id="Line_153" data-name="Line 153" x2="0.631" transform="translate(7.762 150.915)" fill="#e5eefd" stroke="#717791" stroke-linecap="round" stroke-linejoin="round" stroke-width="2"/>
      <line id="Line_154" data-name="Line 154" x2="3.142" transform="translate(0 150.915)" fill="#e5eefd" stroke="#717791" stroke-linecap="round" stroke-linejoin="round" stroke-width="2.038"/>
      <line id="Line_155" data-name="Line 155" x2="60.507" transform="translate(48.486 161.228)" fill="#e5eefd" stroke="#717791" stroke-linecap="round" stroke-linejoin="round" stroke-width="2.358"/>
      <line id="Line_156" data-name="Line 156" x2="15.505" transform="translate(32.083 161.228)" fill="#e5eefd" stroke="#717791" stroke-linecap="round" stroke-linejoin="round" stroke-width="2.038"/>
      <line id="Line_157" data-name="Line 157" x2="8.071" transform="translate(123.245 161.228)" fill="#e5eefd" stroke="#717791" stroke-linecap="round" stroke-linejoin="round" stroke-width="2.038"/>
      <rect id="Rectangle_1717" data-name="Rectangle 1717" width="81.848" height="122.061" rx="12.452" transform="translate(48.942 22.083)" fill="#fff"/>
      <path id="Path_11787" data-name="Path 11787" d="M852.072,3150.575v102.9c0,5.292-2.873,9.577-6.422,9.577h-69c-3.549,0-6.422-4.285-6.422-9.577v-102.9c0-5.292,2.873-9.585,6.422-9.585h69C849.2,3140.99,852.072,3145.282,852.072,3150.575Z" transform="translate(-721.284 -3118.91)" fill="#e5eefd" stroke="#717791" stroke-linecap="round" stroke-linejoin="round" stroke-width="2.1"/>
      <line id="Line_158" data-name="Line 158" x2="4.236" transform="translate(91.389 48.082)" fill="none" stroke="#717791" stroke-linecap="round" stroke-linejoin="round" stroke-width="2.1"/>
      <path id="Path_11788" data-name="Path 11788" d="M783.4,3221.662v-59.506a7.988,7.988,0,0,1,7.989-7.988H877.2a7.988,7.988,0,0,1,7.989,7.988v85.818a7.989,7.989,0,0,1-7.989,7.989H791.387a7.989,7.989,0,0,1-7.989-7.989v-18.229" transform="translate(-744.418 -3110.729)" fill="#e5eefd" stroke="#717791" stroke-linecap="round" stroke-linejoin="round" stroke-width="2.1"/>
      <rect id="Rectangle_1718" data-name="Rectangle 1718" width="4.99" height="13.307" rx="2.495" transform="translate(46.095 63.808)" stroke-width="2.1" stroke="#717791" stroke-linecap="round" stroke-linejoin="round" fill="#fff"/>
      <path id="Path_11789" data-name="Path 11789" d="M780.309,3262.49v-4.562a2.061,2.061,0,0,1,2.062-2.062h.867a2.062,2.062,0,0,1,2.062,2.062v9.183a2.062,2.062,0,0,1-2.062,2.062h-.867a2.063,2.063,0,0,1-2.013-1.615" transform="translate(-734.214 -3137.478)" fill="#fff" stroke="#717791" stroke-linecap="round" stroke-linejoin="round" stroke-width="2.1"/>
      <g id="Group_7138" data-name="Group 7138" transform="translate(58.649 61.36)" opacity="0.2">
        <g id="Group_7137" data-name="Group 7137">
          <g id="Group_7135" data-name="Group 7135">
            <g id="Group_7134" data-name="Group 7134">
              <path id="Path_11790" data-name="Path 11790" d="M873.813,3229.5l-8.855-5.114a24.644,24.644,0,0,0-.559-21.129l8.576-5.58a2.638,2.638,0,0,0-2.873-4.425l-8.582,5.58a24.607,24.607,0,0,0-16.482-8.949v-10.233a2.64,2.64,0,0,0-5.281,0v10.24a24.613,24.613,0,0,0-17.276,9.972l-8.862-5.12a2.64,2.64,0,0,0-2.637,4.574l8.855,5.113a24.708,24.708,0,0,0,.558,21.13l-8.576,5.573a2.642,2.642,0,0,0,2.879,4.431l8.576-5.579a24.626,24.626,0,0,0,16.483,8.949v10.226a2.64,2.64,0,1,0,5.281,0V3238.93a24.635,24.635,0,0,0,17.276-9.972l8.862,5.113a2.637,2.637,0,1,0,2.637-4.567Zm-31.413,3.32a18.415,18.415,0,1,1,18.413-18.413A18.414,18.414,0,0,1,842.4,3232.824Z" transform="translate(-809.662 -3177.017)" fill="#3f72ba"/>
            </g>
          </g>
          <g id="Group_7136" data-name="Group 7136" transform="translate(19.712 24.369)">
            <circle id="Ellipse_540" data-name="Ellipse 540" cx="9.969" cy="9.969" r="9.969" transform="translate(0 18.42) rotate(-67.5)" fill="#3f72ba"/>
          </g>
        </g>
      </g>
      <g id="Group_7139" data-name="Group 7139" transform="translate(57.511 58.633)">
        <path id="Path_11791" data-name="Path 11791" d="M837.757,3184.894a24.613,24.613,0,0,0-17.276,9.972l-8.862-5.12a2.64,2.64,0,1,0-2.637,4.574l8.855,5.113a24.708,24.708,0,0,0,.559,21.13l-8.576,5.573a2.642,2.642,0,0,0,2.879,4.431l8.575-5.579a24.625,24.625,0,0,0,16.483,8.949v10.226a2.64,2.64,0,1,0,5.281,0V3233.93a24.635,24.635,0,0,0,17.276-9.972l8.862,5.113a2.637,2.637,0,1,0,2.637-4.567l-8.855-5.114a24.645,24.645,0,0,0-.559-21.13l8.576-5.579a2.638,2.638,0,1,0-2.873-4.425l-8.582,5.579a24.607,24.607,0,0,0-16.482-8.948v-10.233a2.64,2.64,0,0,0-5.281,0v6.069m2.643,47.1a18.4,18.4,0,1,1,1.751-.082" transform="translate(-807.662 -3172.017)" fill="#fff" stroke="#717791" stroke-linecap="round" stroke-linejoin="round" stroke-width="2.1"/>
        <circle id="Ellipse_541" data-name="Ellipse 541" cx="9.969" cy="9.969" r="9.969" transform="translate(19.712 42.789) rotate(-67.5)" fill="#fff"/>
        <path id="Path_11792" data-name="Path 11792" d="M851.995,3208.88a9.97,9.97,0,1,0,5.2,8.757,10.083,10.083,0,0,0-.095-1.381" transform="translate(-814.492 -3180.244)" fill="none" stroke="#717791" stroke-linecap="round" stroke-linejoin="round" stroke-width="2.1"/>
        <path id="Path_11793" data-name="Path 11793" d="M861.99,3215.2q-.044-.1-.09-.191" transform="translate(-820.178 -3181.938)" fill="none" stroke="#717791" stroke-linecap="round" stroke-linejoin="round" stroke-width="2.1"/>
      </g>
      <g id="Group_7148" data-name="Group 7148" transform="translate(69.275 80.242)">
        <path id="Path_11794" data-name="Path 11794" d="M911.338,3240.929V3270.1a10.921,10.921,0,0,1-10.921,10.921H860.207a26.032,26.032,0,0,1-4.123-6.886c-.578.079-2.763.052-3.368.052a3.782,3.782,0,0,1-3.781-3.789v-8.1a3.781,3.781,0,0,1,3.781-3.781h2.763a28.6,28.6,0,0,1,11.061-14.465v-6.021a1.138,1.138,0,0,1,.8-1.091c1.889-.584,6.73-1.619,10.028,1.762,1.123-.36,2.237-.675,3.351-.947a13.466,13.466,0,0,1-.079-1.456,14.547,14.547,0,0,1,11.73-14.426,14.737,14.737,0,0,1,17.218,18.206C910.18,3240.359,910.768,3240.639,911.338,3240.929Z" transform="translate(-848.935 -3217.751)" fill="#3f72ba" opacity="0.2"/>
        <path id="Path_11795" data-name="Path 11795" d="M927.879,3288.224c-1.054,1.015-1.392.454-1.492,2.3-.008.254-.023.562-.023.923-.023,1.862.046,5.254.046,11.646a3.179,3.179,0,0,1-3.169,3.169h-9.862a3.163,3.163,0,0,1-3.162-3.169v-5.531a47.794,47.794,0,0,1-20.246.423v5.108a3.17,3.17,0,0,1-3.169,3.169h-9.854a3.17,3.17,0,0,1-3.169-3.169V3291.07a33.744,33.744,0,0,1-2.9-2.369,27.765,27.765,0,0,1-7.2-10.123c-.577.077-2.762.054-3.369.054a3.782,3.782,0,0,1-3.777-3.792v-8.093a3.78,3.78,0,0,1,3.777-3.785h2.762a28.659,28.659,0,0,1,11.062-14.462v-5.815a1.417,1.417,0,0,1,1.023-1.362c2.023-.593,6.631-1.431,9.808,1.823C920.856,3231.593,951.91,3265.324,927.879,3288.224Z" transform="translate(-850.688 -3222.177)" fill="#fff"/>
        <g id="Group_7140" data-name="Group 7140" transform="translate(20.19 66.524)">
          <path id="Path_11796" data-name="Path 11796" d="M878.082,3305.449v12.023a3.17,3.17,0,0,0,3.169,3.169h9.854a3.17,3.17,0,0,0,3.169-3.169v-4.531c-5.7-1.631-12.131-4.8-19.093-9.862A33.744,33.744,0,0,0,878.082,3305.449Z" transform="translate(-875.182 -3303.08)" fill="#e5eefd"/>
          <path id="Path_11797" data-name="Path 11797" d="M942.468,3306.373c0-.362.015-.669.023-.923-4.508,3.562-10.539,6.085-16.169,7.6v4.969a3.163,3.163,0,0,0,3.162,3.169h9.862a3.179,3.179,0,0,0,3.169-3.169C942.515,3311.627,942.445,3308.235,942.468,3306.373Z" transform="translate(-886.983 -3303.627)" fill="#e5eefd"/>
        </g>
        <ellipse id="Ellipse_542" data-name="Ellipse 542" cx="4.037" cy="2.714" rx="4.037" ry="2.714" transform="translate(18.908 39.321) rotate(-45)" fill="#b8d4ff" stroke="#717791" stroke-linecap="round" stroke-linejoin="round" stroke-width="2.395"/>
        <path id="Path_11798" data-name="Path 11798" d="M960.241,3277.157a8.262,8.262,0,0,1,5.727,2.119,5.571,5.571,0,0,1,1.178,5.707,3.932,3.932,0,0,1-2.441,2.462,2.533,2.533,0,0,1-3.009-1.306,2.588,2.588,0,0,1,.25-2.229,4.783,4.783,0,0,1,1.668-1.584,5.762,5.762,0,0,1,4.257-.875,5.821,5.821,0,0,1,3.684,3.273,17.241,17.241,0,0,1,1.266,4.915" transform="translate(-874.62 -3230.574)" fill="none" stroke="#717791" stroke-linecap="round" stroke-linejoin="round" stroke-width="3.105"/>
        <path id="Path_11799" data-name="Path 11799" d="M881.977,3310.552h-5.026a3.172,3.172,0,0,1-3.175-3.167v-12.026a33.179,33.179,0,0,1-2.895-2.368,27.712,27.712,0,0,1-7.2-10.123c-.579.079-2.763.052-3.369.052a3.783,3.783,0,0,1-3.781-3.789v-8.1a3.781,3.781,0,0,1,3.781-3.781h2.763a25.776,25.776,0,0,1,4.167-7.9" transform="translate(-850.688 -3226.466)" fill="none" stroke="#717791" stroke-linecap="round" stroke-linejoin="round" stroke-width="2.601"/>
        <path id="Path_11800" data-name="Path 11800" d="M875.922,3250.612a33.976,33.976,0,0,1,2.688-2.112v-6.833s6.649-2.8,10.824,1.482c35.9-11.553,66.948,22.175,42.921,45.079-1.2,1.148-1.482.263-1.518,3.219-.026,1.859.044,5.254.044,11.649a3.17,3.17,0,0,1-3.166,3.167h-9.86a3.17,3.17,0,0,1-3.166-3.167v-5.535a47.618,47.618,0,0,1-20.246.421v5.114a3.167,3.167,0,0,1-2.457,3.087" transform="translate(-855.162 -3222.177)" fill="none" stroke="#717791" stroke-linecap="round" stroke-linejoin="round" stroke-width="2.492"/>
        <g id="Group_7144" data-name="Group 7144" transform="translate(33.684)">
          <g id="Group_7143" data-name="Group 7143" clip-path="url(#clip-path)">
            <g id="Group_7141" data-name="Group 7141" transform="translate(6.47 6.323)">
              <circle id="Ellipse_543" data-name="Ellipse 543" cx="12.102" cy="12.102" r="12.102" transform="translate(0)" fill="#fff"/>
              <path id="Path_11801" data-name="Path 11801" d="M908.985,3225.588a12.107,12.107,0,1,1-5.747,4.514" transform="translate(-901.134 -3224.82)" fill="none" stroke="#717791" stroke-linecap="round" stroke-linejoin="round" stroke-width="2"/>
              <path id="Path_11802" data-name="Path 11802" d="M905.857,3229.076q.211-.207.432-.4c.143-.128.282-.257.418-.39" transform="translate(-902.224 -3225.619)" fill="none" stroke="#717791" stroke-linecap="round" stroke-linejoin="round" stroke-width="1.846"/>
              <path id="Path_11803" data-name="Path 11803" d="M923.89,3236.741a8.579,8.579,0,0,1-11.513,10.782" transform="translate(-903.728 -3227.571)" fill="#fff" stroke="#717791" stroke-linecap="round" stroke-linejoin="round" stroke-width="1.983"/>
              <path id="Path_11804" data-name="Path 11804" d="M906.6,3241.776a8.575,8.575,0,0,1,13.914-9.693" transform="translate(-902.192 -3225.878)" fill="#fff" stroke="#717791" stroke-linecap="round" stroke-linejoin="round" stroke-width="1.963"/>
            </g>
            <g id="Group_7142" data-name="Group 7142" transform="translate(14.586 12.934)">
              <path id="Path_11805" data-name="Path 11805" d="M918.537,3236.461c-.176.313-.845.288-1.922.288-.081.772-.2,1.527-.2,1.86.7.528,1.2.542,1.4.953a1.407,1.407,0,0,1-.371,1.817,4.185,4.185,0,0,1-1.357.672c-.057.785-.178,1.879-.145,2.118.095.692.171.786.05.94a.9.9,0,0,1-1.255.033c-.352-.45-.04-1.437-.04-2.516-1.6.351-2.444.624-2.915.093-.242-.271-.041-.939.818-1.132.791-.177,2.2-.152,2.2-.45a16.534,16.534,0,0,0,.2-1.959c-.8-.4-2.33-.679-2.33-1.959,0-.622,1.4-1.314,2.655-1.5.02-.2.013-.477.013-1.714,0-.472.929-.848,1.354-.381s.01,1.562.01,1.876c.135,0,.344,0,.469-.006.389-.027.395-.112.762-.112C918.722,3235.385,918.69,3236.189,918.537,3236.461Zm-3.326.526a2.189,2.189,0,0,0-.946.417,4.059,4.059,0,0,0,.861.5Zm1.135,2.889-.056-.05c-.037.273-.081.613-.1.887C916.481,3240.423,917.067,3240.519,916.346,3239.876Z" transform="translate(-911.684 -3233.414)" fill="#717791"/>
            </g>
          </g>
        </g>
        <path id="Path_11807" data-name="Path 11807" d="M926.235,3255.478a40.624,40.624,0,0,0-28.015-3.147" transform="translate(-860.308 -3224.577)" fill="#fff" stroke="#717791" stroke-linecap="round" stroke-linejoin="round" stroke-width="3.074"/>
        <g id="Group_7147" data-name="Group 7147" transform="translate(18.908 33.612)">
          <g id="Group_7146" data-name="Group 7146">
            <g id="Group_7145" data-name="Group 7145">
              <ellipse id="Ellipse_544" data-name="Ellipse 544" cx="4.037" cy="2.714" rx="4.037" ry="2.714" transform="translate(0 5.709) rotate(-45)" fill="#e5eefd"/>
              <ellipse id="Ellipse_545" data-name="Ellipse 545" cx="4.037" cy="2.714" rx="4.037" ry="2.714" transform="translate(0 5.709) rotate(-45)" fill="none" stroke="#717791" stroke-linecap="round" stroke-linejoin="round" stroke-width="2.395"/>
            </g>
          </g>
        </g>
        <path id="Path_11808" data-name="Path 11808" d="M883.448,3309.242a37.768,37.768,0,0,0,9.6,3.914" transform="translate(-856.899 -3237.978)" fill="none" stroke="#717791" stroke-linecap="round" stroke-linejoin="round" stroke-width="1.828"/>
        <path id="Path_11809" data-name="Path 11809" d="M928.946,3313.092a30.018,30.018,0,0,0,3.611-1.83" transform="translate(-867.398 -3238.444)" fill="none" stroke="#717791" stroke-linecap="round" stroke-linejoin="round" stroke-width="1.468"/>
      </g>
      <g id="Group_7151" data-name="Group 7151" transform="translate(123.643 60.177)">
        <g id="Group_7149" data-name="Group 7149">
          <circle id="Ellipse_546" data-name="Ellipse 546" cx="11.868" cy="11.868" r="11.868" transform="translate(0)" fill="#fff"/>
          <path id="Path_11810" data-name="Path 11810" d="M927.311,3163.94a11.873,11.873,0,1,1-5.636,4.427" transform="translate(-919.612 -3163.188)" fill="none" stroke="#717791" stroke-linecap="round" stroke-linejoin="round" stroke-width="1.961"/>
          <path id="Path_11811" data-name="Path 11811" d="M924.244,3167.362c.138-.135.279-.266.422-.395s.277-.252.41-.382" transform="translate(-920.681 -3163.971)" fill="none" stroke="#717791" stroke-linecap="round" stroke-linejoin="round" stroke-width="1.811"/>
          <path id="Path_11812" data-name="Path 11812" d="M941.929,3174.879a8.413,8.413,0,0,1-11.291,10.573" transform="translate(-922.156 -3165.885)" fill="#fff" stroke="#717791" stroke-linecap="round" stroke-linejoin="round" stroke-width="1.945"/>
          <path id="Path_11813" data-name="Path 11813" d="M924.977,3179.817a8.41,8.41,0,0,1,13.646-9.506" transform="translate(-920.65 -3164.225)" fill="#fff" stroke="#717791" stroke-linecap="round" stroke-linejoin="round" stroke-width="1.925"/>
        </g>
        <g id="Group_7150" data-name="Group 7150" transform="translate(8.587 6.447)">
          <path id="Path_11814" data-name="Path 11814" d="M936.832,3174.262c-.156.276-.747.254-1.7.254-.072.682-.175,1.349-.175,1.644.616.467,1.06.479,1.234.842a1.243,1.243,0,0,1-.328,1.605,3.674,3.674,0,0,1-1.2.594c-.05.695-.157,1.661-.128,1.872.084.612.151.695.044.83a.794.794,0,0,1-1.108.03c-.311-.4-.035-1.27-.035-2.223-1.415.31-2.159.551-2.576.082-.215-.239-.036-.829.722-1,.7-.158,1.948-.135,1.948-.4a14.665,14.665,0,0,0,.175-1.731c-.7-.349-2.058-.6-2.058-1.731,0-.549,1.238-1.161,2.345-1.322.018-.181.012-.421.012-1.515,0-.417.822-.749,1.2-.336s.009,1.38.009,1.659c.118,0,.3,0,.415-.006.344-.024.348-.1.673-.1C936.994,3173.311,936.966,3174.022,936.832,3174.262Zm-2.939.465a1.946,1.946,0,0,0-.837.368,3.573,3.573,0,0,0,.761.438Zm1,2.553-.05-.044c-.032.241-.072.542-.088.784C935.014,3177.764,935.533,3177.848,934.9,3177.28Z" transform="translate(-930.775 -3171.569)" fill="#717791"/>
        </g>
      </g>
      <g id="Group_7154" data-name="Group 7154" transform="translate(109.797 28.852)">
        <g id="Group_7152" data-name="Group 7152">
          <circle id="Ellipse_547" data-name="Ellipse 547" cx="14.465" cy="14.465" r="14.465" transform="translate(0 0)" fill="#fff"/>
          <path id="Path_11815" data-name="Path 11815" d="M896.763,3113.116a14.47,14.47,0,1,1-6.869,5.395" transform="translate(-887.38 -3112.197)" fill="none" stroke="#717791" stroke-linecap="round" stroke-linejoin="round" stroke-width="2.39"/>
          <path id="Path_11816" data-name="Path 11816" d="M893.025,3117.285q.251-.247.515-.48t.5-.465" transform="translate(-888.683 -3113.153)" fill="none" stroke="#717791" stroke-linecap="round" stroke-linejoin="round" stroke-width="2.207"/>
          <path id="Path_11817" data-name="Path 11817" d="M914.58,3126.447a10.254,10.254,0,0,1-13.762,12.886" transform="translate(-890.481 -3115.486)" fill="#fff" stroke="#717791" stroke-linecap="round" stroke-linejoin="round" stroke-width="2.371"/>
          <path id="Path_11818" data-name="Path 11818" d="M893.919,3132.465a10.249,10.249,0,0,1,16.631-11.586" transform="translate(-888.645 -3113.462)" fill="#fff" stroke="#717791" stroke-linecap="round" stroke-linejoin="round" stroke-width="2.346"/>
        </g>
        <g id="Group_7153" data-name="Group 7153" transform="translate(10.538 7.699)">
          <path id="Path_11819" data-name="Path 11819" d="M908.592,3125.545c-.193.343-.926.315-2.108.315-.088.846-.218,1.674-.218,2.038.765.579,1.315.594,1.531,1.045a1.541,1.541,0,0,1-.406,1.991,4.591,4.591,0,0,1-1.487.737c-.063.861-.2,2.06-.16,2.322.1.759.188.862.055,1.03a.983.983,0,0,1-1.375.036c-.385-.493-.044-1.575-.044-2.757-1.755.385-2.678.684-3.2.1-.265-.3-.045-1.029.9-1.241.868-.2,2.416-.168,2.416-.494a18.231,18.231,0,0,0,.218-2.147c-.871-.433-2.554-.745-2.554-2.148,0-.681,1.535-1.44,2.909-1.64.022-.224.015-.523.015-1.878,0-.518,1.019-.929,1.484-.418s.011,1.712.011,2.057c.148,0,.378,0,.515-.007.426-.029.432-.124.835-.124C908.793,3124.366,908.758,3125.248,908.592,3125.545Zm-3.646.577a2.407,2.407,0,0,0-1.038.457,4.445,4.445,0,0,0,.943.544Zm1.244,3.167-.062-.055c-.041.3-.089.672-.109.972C906.338,3129.888,906.98,3129.994,906.19,3129.289Z" transform="translate(-901.079 -3122.205)" fill="#717791"/>
        </g>
      </g>
      <rect id="Rectangle_1719" data-name="Rectangle 1719" width="16.656" height="5.76" transform="translate(58.418 154.516)" stroke-width="2.16" stroke="#717791" stroke-linecap="round" stroke-linejoin="round" fill="#fff"/>
      <rect id="Rectangle_1720" data-name="Rectangle 1720" width="16.656" height="5.76" transform="translate(55.588 148.739)" stroke-width="2.16" stroke="#717791" stroke-linecap="round" stroke-linejoin="round" fill="#fff"/>
      <rect id="Rectangle_1721" data-name="Rectangle 1721" width="16.656" height="5.76" transform="translate(59.784 142.906)" stroke-width="2.16" stroke="#717791" stroke-linecap="round" stroke-linejoin="round" fill="#fff"/>
      <rect id="Rectangle_1722" data-name="Rectangle 1722" width="16.656" height="5.76" transform="translate(79.058 155.385)" stroke-width="2.16" stroke="#717791" stroke-linecap="round" stroke-linejoin="round" fill="#fff"/>
      <rect id="Rectangle_1723" data-name="Rectangle 1723" width="16.656" height="5.76" transform="translate(55.922 137.135)" stroke-width="2.16" stroke="#717791" stroke-linecap="round" stroke-linejoin="round" fill="#fff"/>
    </g>
  </g>
</svg>
