<svg xmlns="http://www.w3.org/2000/svg" xmlns:xlink="http://www.w3.org/1999/xlink" width="180.823" height="150.001" viewBox="0 0 180.823 150.001">
  <defs>
    <clipPath id="clip-path">
      <path id="Path_11649" data-name="Path 11649" d="M1361.975,1773.936c-.591,1.474-25.693,104.854-25.693,104.854l-53.9-4.841a8.494,8.494,0,0,0,.58-3.159V1789.5c0-5.263-3.81-9.348-8.77-8.117l-20.137,4.992c-.607-14.549-1.7-30.118-1.7-30.118l33.135-9.216S1362.566,1772.461,1361.975,1773.936Z" transform="translate(-1252.356 -1747.038)" fill="none"/>
    </clipPath>
  </defs>
  <g id="_19._FILE_SECURITY" data-name="19. FILE SECURITY" transform="translate(-1121.863 -1740.549)">
    <g id="Group_7084" data-name="Group 7084" transform="translate(1122.882 1741.591)">
      <path id="Path_11603" data-name="Path 11603" d="M1279.352,1886.185c-.884,9.027-6,18.07-7.313,19.124-1.376,1.1-3.7.478-5.344.478h-130.6l-.076-.137c-3.241-5.674-6.926-11.179-8.765-17.527-5.122-17.679,11.2-29.637,21.751-40.952,6.041-6.477,6.5-15.806,11.727-22.722,7.159-9.473,19.263-14.407,30.818-15.177,13.28-.886,24.574,3.9,32.642,14.659,6.638,8.853,10.419,22.555,20.85,27.881,3.74,1.91,8.074,2.144,12.126,3.231C1270.381,1858.589,1280.714,1872.275,1279.352,1886.185Z" transform="translate(-1124.438 -1766.033)" fill="#ffd300" opacity="0.5"/>
      <path id="Path_11604" data-name="Path 11604" d="M1208.559,1983.731h-5.9a1.123,1.123,0,0,1-1.114-.978l-.529-4.065h9.182l-.528,4.065A1.123,1.123,0,0,1,1208.559,1983.731Z" transform="translate(-1158.665 -1843.664)" fill="#b8d4ff" stroke="#717791" stroke-linecap="round" stroke-linejoin="round" stroke-width="2.358"/>
      <path id="Path_11605" data-name="Path 11605" d="M1208.559,1978.89h-5.9a1.123,1.123,0,0,1-1.114-.978l-.529-4.066h9.182l-.528,4.066A1.124,1.124,0,0,1,1208.559,1978.89Z" transform="translate(-1158.665 -1841.448)" fill="#3f72ba" opacity="0.2"/>
      <path id="Path_11606" data-name="Path 11606" d="M1320.853,1983.731h-5.9a1.123,1.123,0,0,1-1.114-.978l-.528-4.065h9.182l-.529,4.065A1.122,1.122,0,0,1,1320.853,1983.731Z" transform="translate(-1210.09 -1843.664)" fill="#b8d4ff" stroke="#717791" stroke-linecap="round" stroke-linejoin="round" stroke-width="2.358"/>
      <path id="Path_11607" data-name="Path 11607" d="M1320.853,1978.89h-5.9a1.123,1.123,0,0,1-1.114-.978l-.528-4.066h9.182l-.529,4.066A1.123,1.123,0,0,1,1320.853,1978.89Z" transform="translate(-1210.09 -1841.448)" fill="#3f72ba" opacity="0.2"/>
      <circle id="Ellipse_498" data-name="Ellipse 498" cx="1.451" cy="1.451" r="1.451" transform="translate(52.813 6.079)" stroke-width="1.963" stroke="#9fc3fd" stroke-linecap="round" stroke-linejoin="round" fill="none"/>
      <circle id="Ellipse_499" data-name="Ellipse 499" cx="1.187" cy="1.187" r="1.187" transform="translate(9.736 53.865)" stroke-width="1.963" stroke="#9fc3fd" stroke-linecap="round" stroke-linejoin="round" fill="none"/>
      <g id="Group_7059" data-name="Group 7059" transform="translate(131.375 43.835)" opacity="0.7">
        <line id="Line_26" data-name="Line 26" x1="1.995" y2="5.836" transform="translate(1.92)" fill="none" stroke="#c9d7ed" stroke-linecap="round" stroke-linejoin="round" stroke-width="2.328"/>
        <line id="Line_27" data-name="Line 27" x1="5.836" y1="1.995" transform="translate(0 1.92)" fill="none" stroke="#c9d7ed" stroke-linecap="round" stroke-linejoin="round" stroke-width="2.328"/>
      </g>
      <g id="Group_7060" data-name="Group 7060" transform="translate(29.312 28.133)" opacity="0.7">
        <line id="Line_28" data-name="Line 28" x1="4.087" y2="4.618" transform="translate(0.265)" fill="none" stroke="#c9d7ed" stroke-linecap="round" stroke-linejoin="round" stroke-width="2.328"/>
        <line id="Line_29" data-name="Line 29" x1="4.618" y1="4.087" transform="translate(0 0.265)" fill="none" stroke="#c9d7ed" stroke-linecap="round" stroke-linejoin="round" stroke-width="2.328"/>
      </g>
      <g id="Group_7061" data-name="Group 7061" transform="translate(160.127 61.567)" opacity="0.7">
        <line id="Line_30" data-name="Line 30" x1="4.52" y2="1.241" transform="translate(0 1.64)" fill="none" stroke="#c9d7ed" stroke-linecap="round" stroke-linejoin="round" stroke-width="2.328"/>
        <line id="Line_31" data-name="Line 31" x1="1.241" y1="4.52" transform="translate(1.64)" fill="none" stroke="#c9d7ed" stroke-linecap="round" stroke-linejoin="round" stroke-width="2.328"/>
      </g>
      <circle id="Ellipse_500" data-name="Ellipse 500" cx="1.246" cy="1.246" r="1.246" transform="translate(155.149 30.933)" stroke-width="2.328" stroke="#c9d7ed" stroke-linecap="round" stroke-linejoin="round" fill="none"/>
      <circle id="Ellipse_501" data-name="Ellipse 501" cx="1.246" cy="1.246" r="1.246" transform="translate(68.454 30.173)" stroke-width="2.328" stroke="#c9d7ed" stroke-linecap="round" stroke-linejoin="round" fill="none"/>
      <circle id="Ellipse_502" data-name="Ellipse 502" cx="1.246" cy="1.246" r="1.246" transform="translate(150.303 78.957)" stroke-width="2.328" stroke="#c9d7ed" stroke-linecap="round" stroke-linejoin="round" fill="none"/>
      <circle id="Ellipse_503" data-name="Ellipse 503" cx="1.246" cy="1.246" r="1.246" transform="translate(6.064 76.509)" stroke-width="2.328" stroke="#c9d7ed" stroke-linecap="round" stroke-linejoin="round" fill="none"/>
      <circle id="Ellipse_504" data-name="Ellipse 504" cx="1.246" cy="1.246" r="1.246" transform="translate(135.075 25.914)" stroke-width="1.963" stroke="#9fc3fd" stroke-linecap="round" stroke-linejoin="round" fill="none"/>
      <rect id="Rectangle_1664" data-name="Rectangle 1664" width="3.352" height="3.352" transform="matrix(0.754, -0.657, 0.657, 0.754, 99.907, 2.201)" stroke-width="1.477" stroke="#9fc3fd" stroke-linecap="round" stroke-linejoin="round" fill="none"/>
      <rect id="Rectangle_1665" data-name="Rectangle 1665" width="2.306" height="2.306" transform="matrix(-0.264, -0.965, 0.965, -0.264, 53.64, 30.842)" stroke-width="1.477" stroke="#9fc3fd" stroke-linecap="round" stroke-linejoin="round" fill="none"/>
      <line id="Line_32" data-name="Line 32" x2="3.041" transform="translate(147.673 140.513)" fill="#e5eefd" stroke="#717791" stroke-linecap="round" stroke-linejoin="round" stroke-width="2.191"/>
      <line id="Line_33" data-name="Line 33" x2="136.608" transform="translate(8.831 140.513)" fill="#e5eefd" stroke="#717791" stroke-linecap="round" stroke-linejoin="round" stroke-width="2.358"/>
      <line id="Line_34" data-name="Line 34" x2="0.445" transform="translate(5.47 140.513)" fill="#e5eefd" stroke="#717791" stroke-linecap="round" stroke-linejoin="round" stroke-width="2"/>
      <line id="Line_35" data-name="Line 35" x2="2.214" transform="translate(0 140.513)" fill="#e5eefd" stroke="#717791" stroke-linecap="round" stroke-linejoin="round" stroke-width="2.038"/>
      <line id="Line_36" data-name="Line 36" x2="42.637" transform="translate(61.403 147.78)" fill="#e5eefd" stroke="#717791" stroke-linecap="round" stroke-linejoin="round" stroke-width="2.358"/>
      <line id="Line_37" data-name="Line 37" x2="10.926" transform="translate(43.86 147.78)" fill="#e5eefd" stroke="#717791" stroke-linecap="round" stroke-linejoin="round" stroke-width="2.038"/>
      <path id="Path_11650" data-name="Path 11650" d="M11.295,0H74.717A11.3,11.3,0,0,1,86.011,11.295V74.717A11.3,11.3,0,0,1,74.717,86.011H11.295A11.3,11.3,0,0,1,0,74.717V11.295A11.3,11.3,0,0,1,11.295,0Z" transform="translate(34.487 49.731)" fill="#ffe97f" stroke="#717791" stroke-linecap="round" stroke-width="2.358"/>
      <path id="Path_11651" data-name="Path 11651" d="M9.419,0H62.311A9.419,9.419,0,0,1,71.73,9.419V62.311a9.419,9.419,0,0,1-9.419,9.419H9.419A9.419,9.419,0,0,1,0,62.311V9.419A9.419,9.419,0,0,1,9.419,0Z" transform="translate(41.628 56.872)" fill="#ffd300" stroke="#717791" stroke-linecap="round" stroke-width="2.358"/>
      <g id="Group_7062" data-name="Group 7062" transform="translate(41.871 44.4)">
        <path id="Path_11608" data-name="Path 11608" d="M1249.332,1907.584l-44.156-10.867c-2.831-.7-5.048-4.283-5.048-8.034v-57.926c0-3.75,2.217-7.341,5.048-8.042l44.156-10.951c4.96-1.23,9.172,1.992,9.172,7.256v81.292C1258.5,1905.575,1254.292,1908.805,1249.332,1907.584Z" transform="translate(-1200.128 -1811.502)" fill="#ffe97f" stroke="#717791" stroke-linecap="round" stroke-linejoin="round" stroke-width="2.358"/>
      </g>
      <path id="Path_11609" data-name="Path 11609" d="M1244.42,1907.1l-39.094-9.171c-2.915-.683-5.2-4.263-5.2-8.018v-57.992c0-3.755,2.283-7.36,5.2-8.077l39.094-9.609c4.783-1.176,8.838,1.957,8.838,7.051v78.667C1253.258,1905.044,1249.2,1908.222,1244.42,1907.1Z" transform="translate(-1158.257 -1768.24)" fill="#fff" stroke="#717791" stroke-linecap="round" stroke-linejoin="round" stroke-width="2.358"/>
      <rect id="Rectangle_1668" data-name="Rectangle 1668" width="3.516" height="9.377" rx="1.758" transform="translate(39.953 64.176)" stroke-width="2.358" stroke="#717791" stroke-linecap="round" stroke-linejoin="round" fill="#fff"/>
      <rect id="Rectangle_1669" data-name="Rectangle 1669" width="3.516" height="9.377" rx="1.758" transform="translate(39.953 111.997)" stroke-width="2.358" stroke="#717791" stroke-linecap="round" stroke-linejoin="round" fill="#fff"/>
      <path id="Path_11610" data-name="Path 11610" d="M1256.154,1897.82l-6.031-4.342a23.183,23.183,0,0,0,.31-15.91l5.721-4.121a2.846,2.846,0,0,0,.888-3.562,2.019,2.019,0,0,0-3.1-.539l-5.425,4.186c-2.7-4.279-6.732-6.718-11.016-6.558v-6.084c0-1.176-.725-1.933-1.606-1.695a2.571,2.571,0,0,0-1.555,2.482v5.891c-3.7,1.271-6.7,4.451-8.482,8.452l-3.157-2.277c-.564-.407-1.27.006-1.578.9a2.254,2.254,0,0,0,.439,2.379l3.122,2.4a23.415,23.415,0,0,0-.733,5.806,23.18,23.18,0,0,0,.919,6.493l-3.307,2.545a2.243,2.243,0,0,0-.439,2.372,1.423,1.423,0,0,0,1,1.054.76.76,0,0,0,.573-.152l3.461-2.49a14.664,14.664,0,0,0,8.178,7.733v6.815a2.568,2.568,0,0,0,1.555,2.48c.881.237,1.606-.52,1.606-1.7v-7.038c4.041.109,7.846-2.1,10.539-5.969l5.9,4.536a2.013,2.013,0,0,0,3.1-.542,2.429,2.429,0,0,0,.3-1.205A2.917,2.917,0,0,0,1256.154,1897.82Zm-20.259-.35c-4.874-.587-8.48-6.05-8.48-12.259s3.606-11.71,8.48-12.347c5.405-.706,10.255,4.741,10.255,12.25S1241.3,1898.121,1235.895,1897.47Z" transform="translate(-1167.805 -1788.922)" fill="#ffe97f" opacity="0.63"/>
      <path id="Path_11611" data-name="Path 11611" d="M1249.734,1901.556c0,3.827-2.408,6.78-5.228,6.6-2.667-.165-4.724-3.1-4.724-6.553s2.058-6.41,4.724-6.6C1247.325,1894.8,1249.734,1897.729,1249.734,1901.556Z" transform="translate(-1176.416 -1805.337)" fill="#ffe97f" opacity="0.563"/>
      <path id="Path_11612" data-name="Path 11612" d="M1251.85,1891.53l-6.031-4.342a23.189,23.189,0,0,0,.31-15.91l5.721-4.121a2.847,2.847,0,0,0,.889-3.562,2.019,2.019,0,0,0-3.1-.539l-5.425,4.185c-2.7-4.278-6.732-6.718-11.016-6.558V1854.6c0-1.176-.725-1.932-1.606-1.695a2.57,2.57,0,0,0-1.555,2.481v5.892c-3.7,1.271-6.7,4.451-8.482,8.452l-3.157-2.276c-.564-.407-1.269.006-1.578.9a2.253,2.253,0,0,0,.438,2.378l3.122,2.4a23.424,23.424,0,0,0-.734,5.807,23.177,23.177,0,0,0,.919,6.493l-3.307,2.546a2.242,2.242,0,0,0-.438,2.371,1.421,1.421,0,0,0,1,1.054.76.76,0,0,0,.573-.152l3.461-2.49a14.662,14.662,0,0,0,8.178,7.733v6.815a2.568,2.568,0,0,0,1.555,2.48c.881.237,1.606-.52,1.606-1.7v-7.037c4.041.109,7.846-2.1,10.539-5.97l5.9,4.537a2.014,2.014,0,0,0,3.1-.542,2.43,2.43,0,0,0,.3-1.206A2.915,2.915,0,0,0,1251.85,1891.53Zm-20.259-.35c-4.874-.587-8.48-6.05-8.48-12.26s3.606-11.71,8.48-12.347c5.405-.706,10.255,4.741,10.255,12.25S1237,1891.831,1231.591,1891.181Z" transform="translate(-1165.834 -1786.042)" fill="#fff" stroke="#717791" stroke-linecap="round" stroke-linejoin="round" stroke-width="2.358"/>
      <path id="Path_11613" data-name="Path 11613" d="M1245.43,1895.266c0,3.827-2.408,6.78-5.228,6.6-2.667-.165-4.724-3.1-4.724-6.554s2.058-6.41,4.724-6.6C1243.021,1888.511,1245.43,1891.439,1245.43,1895.266Z" transform="translate(-1174.445 -1802.457)" fill="#fff" stroke="#717791" stroke-linecap="round" stroke-linejoin="round" stroke-width="2.358"/>
      <g id="Group_7083" data-name="Group 7083" transform="translate(70.181 9.457)">
        <g id="Group_7082" data-name="Group 7082" clip-path="url(#clip-path)">
          <g id="Group_7081" data-name="Group 7081" transform="translate(0.504 6.037)">
            <g id="Group_7063" data-name="Group 7063" transform="translate(26.394 46.267)">
              <path id="Path_11614" data-name="Path 11614" d="M1337.871,1874.235l-25.294,8.469a1.5,1.5,0,0,1-1.9-.947l-8.625-25.849a1.5,1.5,0,0,1,.947-1.9l31.183-10.405a1.5,1.5,0,0,1,1.9.947l6.676,20.007" transform="translate(-1301.978 -1843.53)" fill="#ffe97f"/>
              <line id="Line_38" data-name="Line 38" x1="4.777" y2="9.636" transform="translate(36.068 21.23)" fill="#e5eefd" stroke="#717791" stroke-linecap="round" stroke-linejoin="round" stroke-width="2.3"/>
              <path id="Path_11615" data-name="Path 11615" d="M1337.993,1874.6l-25.294,8.47a1.5,1.5,0,0,1-1.9-.947l-8.625-25.849a1.5,1.5,0,0,1,.947-1.9l31.182-10.405a1.5,1.5,0,0,1,1.9.947l5.339,16" transform="translate(-1302.034 -1843.698)" fill="none" stroke="#717791" stroke-linecap="round" stroke-linejoin="round" stroke-width="2.3"/>
              <path id="Path_11616" data-name="Path 11616" d="M1371.255,1882.7l-7.192,2.4,1.3,3.9" transform="translate(-1330.41 -1861.467)" fill="none" stroke="#717791" stroke-linecap="round" stroke-linejoin="round" stroke-width="2.317"/>
              <line id="Line_39" data-name="Line 39" x2="5.359" y2="16.061" transform="translate(21.146 10.925)" fill="#e5eefd" stroke="#a3acd6" stroke-linecap="round" stroke-linejoin="round" stroke-width="1.917"/>
              <line id="Line_40" data-name="Line 40" x2="3.231" y2="9.683" transform="translate(19.285 18.635)" fill="#e5eefd" stroke="#a3acd6" stroke-linecap="round" stroke-linejoin="round" stroke-width="1.917"/>
              <line id="Line_41" data-name="Line 41" x2="1.36" y2="4.075" transform="translate(17.156 12.256)" fill="#e5eefd" stroke="#a3acd6" stroke-linecap="round" stroke-linejoin="round" stroke-width="1.917"/>
              <line id="Line_42" data-name="Line 42" x2="0.625" y2="1.873" transform="translate(17.901 27.775)" fill="#e5eefd" stroke="#a3acd6" stroke-linecap="round" stroke-linejoin="round" stroke-width="1.917"/>
              <line id="Line_43" data-name="Line 43" x2="3.845" y2="11.524" transform="translate(13.167 13.588)" fill="#e5eefd" stroke="#a3acd6" stroke-linecap="round" stroke-linejoin="round" stroke-width="1.917"/>
              <line id="Line_44" data-name="Line 44" x2="3.845" y2="11.524" transform="translate(25.284 9.545)" fill="#e5eefd" stroke="#a3acd6" stroke-linecap="round" stroke-linejoin="round" stroke-width="1.917"/>
              <line id="Line_45" data-name="Line 45" x2="0.758" y2="2.27" transform="translate(29.77 22.988)" fill="#e5eefd" stroke="#a3acd6" stroke-linecap="round" stroke-linejoin="round" stroke-width="1.917"/>
              <line id="Line_46" data-name="Line 46" x2="3.418" y2="10.244" transform="translate(9.177 14.919)" fill="#e5eefd" stroke="#a3acd6" stroke-linecap="round" stroke-linejoin="round" stroke-width="1.917"/>
            </g>
            <g id="Group_7076" data-name="Group 7076">
              <g id="Group_7064" data-name="Group 7064">
                <path id="Path_11617" data-name="Path 11617" d="M1281.523,1813.115l-28.237-17.954,22.264-36.986,29.244,18.17Z" transform="translate(-1253.286 -1758.175)" fill="#fff"/>
                <path id="Path_11618" data-name="Path 11618" d="M1301.5,1784.289l6.307,3.9-22.844,36.844-25.572-15.817" transform="translate(-1256.082 -1770.134)" fill="#fff" stroke="#717791" stroke-linecap="round" stroke-linejoin="round" stroke-width="2.388"/>
                <path id="Path_11619" data-name="Path 11619" d="M1308.391,1770.96l-20-12.369-7.768,12.528" transform="translate(-1265.806 -1758.366)" fill="#fff" stroke="#717791" stroke-linecap="round" stroke-linejoin="round" stroke-width="2.388"/>
                <line id="Line_47" data-name="Line 47" x1="10.679" y2="17.224" transform="translate(1.635 16.792)" fill="#fff" stroke="#717791" stroke-linecap="round" stroke-linejoin="round" stroke-width="1.437"/>
              </g>
              <g id="Group_7073" data-name="Group 7073" transform="translate(8.158 20.373)">
                <g id="Group_7072" data-name="Group 7072" transform="translate(0.25 3.247)">
                  <g id="Group_7071" data-name="Group 7071">
                    <g id="Group_7065" data-name="Group 7065">
                      <path id="Path_11620" data-name="Path 11620" d="M1270.949,1812.583s-1.928-1.19-2.061-1.273a.212.212,0,0,1-.085-.076.091.091,0,0,1,.012-.084c1.244-2.339,2.923-4.4,4.311-6.655.514-.889.982-1.808,1.473-2.711l.019-.034c.726.449,1.45.9,2.18,1.344C1276.493,1802.909,1271.37,1811.751,1270.949,1812.583Z" transform="translate(-1268.798 -1801.75)" fill="#a9ebc8"/>
                    </g>
                    <g id="Group_7066" data-name="Group 7066" transform="translate(3.913 6.089)">
                      <path id="Path_11621" data-name="Path 11621" d="M1278.177,1820.154s-1.928-1.191-2.061-1.273a.326.326,0,0,1-.088-.07.05.05,0,0,1,0-.058,46.639,46.639,0,0,1,2.7-4.05c.307-.552.566-1.133.848-1.7l.011-.021c.726.449,1.45.9,2.179,1.345C1281.462,1814.142,1278.409,1819.627,1278.177,1820.154Z" transform="translate(-1276.016 -1812.983)" fill="#9fc3fd"/>
                    </g>
                    <g id="Group_7067" data-name="Group 7067" transform="translate(7.624 6.756)">
                      <path id="Path_11622" data-name="Path 11622" d="M1285.02,1823.01s-1.929-1.19-2.061-1.273a.256.256,0,0,1-.087-.073.066.066,0,0,1,0-.069c.946-1.856,2.328-3.439,3.418-5.206.4-.7.75-1.433,1.125-2.148l.015-.027c.726.449,1.45.9,2.179,1.344C1289.307,1815.372,1285.336,1822.348,1285.02,1823.01Z" transform="translate(-1282.863 -1814.213)" fill="#a9ebc8"/>
                    </g>
                    <g id="Group_7068" data-name="Group 7068" transform="translate(11.388 7.985)">
                      <path id="Path_11623" data-name="Path 11623" d="M1291.96,1826.374s-1.928-1.19-2.061-1.273a.235.235,0,0,1-.086-.075.077.077,0,0,1,.008-.077c1.106-2.117,2.648-3.959,3.9-5.987.461-.8.875-1.634,1.312-2.451l.017-.031c.726.449,1.451.9,2.18,1.344C1296.924,1817.641,1292.333,1825.621,1291.96,1826.374Z" transform="translate(-1289.807 -1816.481)" fill="#9fc3fd"/>
                    </g>
                    <g id="Group_7069" data-name="Group 7069" transform="translate(15.306 12.037)">
                      <path id="Path_11624" data-name="Path 11624" d="M1299.192,1832.224s-1.928-1.19-2.061-1.273a.279.279,0,0,1-.087-.072.061.061,0,0,1,0-.066c.868-1.731,2.173-3.188,3.185-4.83.369-.653.69-1.335,1.035-2l.013-.026c.726.449,1.451.9,2.179,1.345C1303.153,1825.115,1299.481,1831.605,1299.192,1832.224Z" transform="translate(-1297.034 -1823.956)" fill="#9fc3fd"/>
                    </g>
                    <g id="Group_7070" data-name="Group 7070" transform="translate(19.059 16.821)">
                      <path id="Path_11625" data-name="Path 11625" d="M1306.124,1838.592s-1.928-1.191-2.061-1.273a.431.431,0,0,1-.09-.067.04.04,0,0,1-.01-.049,27.433,27.433,0,0,1,2.107-3.082c.229-.426.411-.882.616-1.323l.008-.017q1.089.674,2.179,1.346C1308.57,1833.942,1306.287,1838.179,1306.124,1838.592Z" transform="translate(-1303.959 -1832.782)" fill="#a9ebc8"/>
                    </g>
                  </g>
                </g>
                <path id="Path_11626" data-name="Path 11626" d="M1270.481,1809.7c0-.006-1.929-1.19-2.061-1.272a.168.168,0,0,1-.081-.082.139.139,0,0,1,.026-.105c1.7-3.076,3.831-5.877,5.673-8.864.691-1.175,1.335-2.38,2-3.569l.026-.045c.726.449,1.45.9,2.181,1.343C1277.94,1796.919,1271.062,1808.606,1270.481,1809.7Z" transform="translate(-1268.336 -1795.76)" fill="none" stroke="#717791" stroke-linecap="round" stroke-linejoin="round" stroke-width="1.916"/>
                <path id="Path_11627" data-name="Path 11627" d="M1277.708,1818.281s-1.928-1.19-2.061-1.273a.259.259,0,0,1-.087-.073.069.069,0,0,1,0-.071c.986-1.923,2.409-3.572,3.54-5.406.415-.727.782-1.484,1.173-2.225l.015-.028c.726.449,1.451.9,2.18,1.344C1282.168,1810.363,1278.038,1817.595,1277.708,1818.281Z" transform="translate(-1271.641 -1801.917)" fill="none" stroke="#717791" stroke-linecap="round" stroke-linejoin="round" stroke-width="1.916"/>
                <path id="Path_11628" data-name="Path 11628" d="M1284.552,1820.688s-1.929-1.19-2.061-1.273a.2.2,0,0,1-.084-.078.1.1,0,0,1,.014-.086c1.3-2.435,3.04-4.595,4.487-6.941.538-.926,1.028-1.882,1.541-2.822l.02-.035c.726.449,1.45.9,2.18,1.343C1290.343,1810.612,1284.993,1819.821,1284.552,1820.688Z" transform="translate(-1274.777 -1802.031)" fill="none" stroke="#717791" stroke-linecap="round" stroke-linejoin="round" stroke-width="1.916"/>
                <path id="Path_11629" data-name="Path 11629" d="M1291.492,1823.749s-1.929-1.19-2.061-1.272a.184.184,0,0,1-.082-.08.119.119,0,0,1,.02-.1c1.515-2.78,3.466-5.285,5.126-7.976.62-1.06,1.193-2.15,1.789-3.224l.023-.041c.726.449,1.45.9,2.181,1.343C1298.181,1812.218,1292.008,1822.762,1291.492,1823.749Z" transform="translate(-1277.957 -1802.766)" fill="none" stroke="#717791" stroke-linecap="round" stroke-linejoin="round" stroke-width="1.916"/>
                <path id="Path_11630" data-name="Path 11630" d="M1298.724,1830.048s-1.928-1.191-2.061-1.273a.22.22,0,0,1-.085-.076.089.089,0,0,1,.011-.082c1.2-2.268,2.835-4.262,4.179-6.441.5-.861.948-1.753,1.421-2.628l.018-.033c.726.449,1.45.9,2.18,1.344C1304.082,1820.675,1299.129,1829.241,1298.724,1830.048Z" transform="translate(-1281.266 -1806.639)" fill="none" stroke="#717791" stroke-linecap="round" stroke-linejoin="round" stroke-width="1.916"/>
                <path id="Path_11631" data-name="Path 11631" d="M1305.592,1836.868s-1.927-1.191-2.06-1.273a.315.315,0,0,1-.089-.07.051.051,0,0,1,0-.059,48.189,48.189,0,0,1,2.748-4.12c.312-.561.577-1.151.865-1.726l.011-.022c.726.449,1.451.9,2.179,1.345C1308.938,1830.757,1305.83,1836.333,1305.592,1836.868Z" transform="translate(-1284.408 -1811.256)" fill="none" stroke="#717791" stroke-linecap="round" stroke-linejoin="round" stroke-width="1.916"/>
              </g>
              <g id="Group_7074" data-name="Group 7074" transform="translate(29.299 15.06)">
                <line id="Line_48" data-name="Line 48" x2="10.34" y2="6.181" transform="translate(3.018 2.617)" fill="#e5eefd" stroke="#a3acd6" stroke-linecap="round" stroke-linejoin="round" stroke-width="1.769"/>
                <line id="Line_49" data-name="Line 49" x2="6.234" y2="3.727" transform="translate(5.615 7.596)" fill="#e5eefd" stroke="#a3acd6" stroke-linecap="round" stroke-linejoin="round" stroke-width="1.769"/>
                <line id="Line_50" data-name="Line 50" x2="2.623" y2="1.568" transform="translate(1.509 5.141)" fill="#e5eefd" stroke="#a3acd6" stroke-linecap="round" stroke-linejoin="round" stroke-width="1.769"/>
                <line id="Line_51" data-name="Line 51" x2="1.206" y2="0.721" transform="translate(9.134 13.125)" fill="#e5eefd" stroke="#a3acd6" stroke-linecap="round" stroke-linejoin="round" stroke-width="1.769"/>
                <line id="Line_52" data-name="Line 52" x2="7.419" y2="4.435" transform="translate(0 7.665)" fill="#e5eefd" stroke="#a3acd6" stroke-linecap="round" stroke-linejoin="round" stroke-width="1.769"/>
                <line id="Line_53" data-name="Line 53" x2="7.419" y2="4.435" transform="translate(4.582)" fill="#e5eefd" stroke="#a3acd6" stroke-linecap="round" stroke-linejoin="round" stroke-width="1.769"/>
                <line id="Line_54" data-name="Line 54" x2="1.462" y2="0.874" transform="translate(13.237 5.174)" fill="#e5eefd" stroke="#a3acd6" stroke-linecap="round" stroke-linejoin="round" stroke-width="1.769"/>
              </g>
              <path id="Path_11632" data-name="Path 11632" d="M1294.27,1786.16a4.693,4.693,0,0,1-3.35-1.277,5.214,5.214,0,0,1-1.654-4.612,5.081,5.081,0,0,1,3.417-3.8,3.793,3.793,0,0,1,4.412,1.475.094.094,0,0,1-.049-.036c.013.025.026.052.04.076-1.1,1.216-1.88,2.177-2.98,3.393a15.84,15.84,0,0,1,3.439,2.654A4.371,4.371,0,0,1,1294.27,1786.16Z" transform="translate(-1269.73 -1766.467)" fill="#ffd300"/>
              <path id="Path_11633" data-name="Path 11633" d="M1296,1779.593l-.628.794-.551.61a15.848,15.848,0,0,1,3.439,2.654,4.373,4.373,0,0,1-3.276,2.127,4.7,4.7,0,0,1-3.35-1.277,5.213,5.213,0,0,1-1.654-4.612,5.08,5.08,0,0,1,3.417-3.8,3.793,3.793,0,0,1,4.413,1.475" transform="translate(-1270.059 -1766.292)" fill="none" stroke="#717791" stroke-linecap="round" stroke-linejoin="round" stroke-width="1.415"/>
              <g id="Group_7075" data-name="Group 7075" transform="translate(26.471 11.458)">
                <path id="Path_11634" data-name="Path 11634" d="M1305.114,1784.914l-2.992-2.611,2.424-2.989.056.049A4.037,4.037,0,0,1,1305.114,1784.914Z" transform="translate(-1302.122 -1779.314)" fill="#a9ebc8"/>
                <path id="Path_11635" data-name="Path 11635" d="M1303.184,1781.593l1.848-2.279.056.049a4.037,4.037,0,0,1,.512,5.551" transform="translate(-1302.608 -1779.314)" fill="none" stroke="#717791" stroke-linecap="round" stroke-linejoin="round" stroke-width="1.415"/>
              </g>
            </g>
            <g id="Group_7078" data-name="Group 7078" transform="translate(14.052 73.918)">
              <path id="Path_11636" data-name="Path 11636" d="M1321.8,1938.575l-1.127,2.909a1.691,1.691,0,0,1-2.187.966l-38.2-14.8a1.691,1.691,0,0,1-.966-2.187l11.559-29.842a1.691,1.691,0,0,1,2.187-.966l38.2,14.8a1.691,1.691,0,0,1,.966,2.187l-7.5,19.364" transform="translate(-1279.211 -1894.543)" fill="#fff"/>
              <path id="Path_11637" data-name="Path 11637" d="M1279.212,1926.139a1.682,1.682,0,0,1,.113-.673l11.559-29.842a1.691,1.691,0,0,1,2.187-.966l38.2,14.8a1.691,1.691,0,0,1,.966,2.187l-7.5,19.364" transform="translate(-1279.211 -1894.543)" fill="#fff" stroke="#717791" stroke-linecap="round" stroke-linejoin="round" stroke-width="2.564"/>
              <path id="Path_11638" data-name="Path 11638" d="M1327.474,1968.394l-1.127,2.909a1.691,1.691,0,0,1-2.187.966l-32.561-12.612" transform="translate(-1284.884 -1924.362)" fill="#fff" stroke="#717791" stroke-linecap="round" stroke-linejoin="round" stroke-width="2.931"/>
              <path id="Path_11639" data-name="Path 11639" d="M1326.732,1944.407l6.352-2.785-4.087-9.937,4.243-2.348-1.862-4.591,7.051-3.455-2.15-5.122-2.579-1.416-.914.6-10.552,26.556.562.9,2.86,1.146Z" transform="translate(-1298.913 -1903.798)" fill="#b8d4ff"/>
              <rect id="Rectangle_1670" data-name="Rectangle 1670" width="30.109" height="17.067" rx="2.076" transform="translate(23.043 38.774) rotate(-68.827)" stroke-width="1.726" stroke="#717791" stroke-linecap="round" stroke-linejoin="round" fill="none"/>
              <path id="Path_11640" data-name="Path 11640" d="M1345.8,1917.621l1.931,4.373-7.4,3.264" transform="translate(-1307.202 -1905.112)" fill="none" stroke="#717791" stroke-linecap="round" stroke-linejoin="round" stroke-width="1.726"/>
              <line id="Line_55" data-name="Line 55" x1="0.318" y2="0.14" transform="translate(34.127 19.568)" fill="none" stroke="#717791" stroke-linecap="round" stroke-linejoin="round" stroke-width="1.726"/>
              <path id="Path_11641" data-name="Path 11641" d="M1337.024,1925.316l3.785,8.571-4.359,1.925" transform="translate(-1305.423 -1908.635)" fill="none" stroke="#717791" stroke-linecap="round" stroke-linejoin="round" stroke-width="1.726"/>
              <path id="Path_11642" data-name="Path 11642" d="M1332.886,1942.18l.619,1.409,4.372,9.893-7.588,3.351" transform="translate(-1302.602 -1916.358)" fill="none" stroke="#717791" stroke-linecap="round" stroke-linejoin="round" stroke-width="1.726"/>
              <circle id="Ellipse_505" data-name="Ellipse 505" cx="2.807" cy="2.807" r="2.807" transform="translate(38.754 20.188)" stroke-width="1.726" stroke="#717791" stroke-linecap="round" stroke-linejoin="round" fill="#ffd300"/>
              <g id="Group_7077" data-name="Group 7077" transform="translate(9.67 6.688)">
                <line id="Line_56" data-name="Line 56" x1="9.1" y2="23.495" transform="translate(6.518 3.787)" fill="#e5eefd" stroke="#a3acd6" stroke-linecap="round" stroke-linejoin="round" stroke-width="2.158"/>
                <line id="Line_57" data-name="Line 57" x1="5.486" y2="14.165" transform="translate(3.259 11.855)" fill="#e5eefd" stroke="#a3acd6" stroke-linecap="round" stroke-linejoin="round" stroke-width="2.158"/>
                <line id="Line_58" data-name="Line 58" x1="2.309" y2="5.961" transform="translate(10.051 2.525)" fill="#e5eefd" stroke="#a3acd6" stroke-linecap="round" stroke-linejoin="round" stroke-width="2.158"/>
                <line id="Line_59" data-name="Line 59" x1="1.061" y2="2.741" transform="translate(0 22.017)" fill="#e5eefd" stroke="#a3acd6" stroke-linecap="round" stroke-linejoin="round" stroke-width="2.158"/>
                <line id="Line_60" data-name="Line 60" x1="6.53" y2="16.858" transform="translate(2.571 1.262)" fill="#e5eefd" stroke="#a3acd6" stroke-linecap="round" stroke-linejoin="round" stroke-width="2.158"/>
                <line id="Line_61" data-name="Line 61" x1="6.53" y2="16.858" transform="translate(12.468 5.096)" fill="#e5eefd" stroke="#a3acd6" stroke-linecap="round" stroke-linejoin="round" stroke-width="2.158"/>
                <line id="Line_62" data-name="Line 62" x1="1.286" y2="3.321" transform="translate(10.094 24.763)" fill="#e5eefd" stroke="#a3acd6" stroke-linecap="round" stroke-linejoin="round" stroke-width="2.158"/>
                <line id="Line_63" data-name="Line 63" x1="5.804" y2="14.986" transform="translate(0.037)" fill="#e5eefd" stroke="#a3acd6" stroke-linecap="round" stroke-linejoin="round" stroke-width="2.158"/>
              </g>
              <line id="Line_64" data-name="Line 64" x1="0.064" y2="0.166" transform="translate(44.61 38.651)" fill="#fff" stroke="#717791" stroke-linecap="round" stroke-linejoin="round" stroke-width="1.973"/>
            </g>
            <g id="Group_7080" data-name="Group 7080" transform="translate(17.646 55.125)">
              <circle id="Ellipse_506" data-name="Ellipse 506" cx="16.865" cy="16.865" r="16.865" transform="translate(0 0.072)" fill="#3f72ba" opacity="0.2"/>
              <circle id="Ellipse_507" data-name="Ellipse 507" cx="16.054" cy="16.054" r="16.054" transform="translate(2.464)" fill="#fff"/>
              <g id="Group_7079" data-name="Group 7079" transform="translate(2.507 0.169)">
                <path id="Path_11643" data-name="Path 11643" d="M1322.21,1878.036a15.933,15.933,0,1,1-.428-6.049" transform="translate(-1290.466 -1860.184)" fill="none" stroke="#717791" stroke-linecap="round" stroke-linejoin="round" stroke-width="2.449"/>
                <path id="Path_11644" data-name="Path 11644" d="M1349.218,1888.428q.01.253.012.506" transform="translate(-1317.371 -1873.118)" fill="none" stroke="#717791" stroke-linecap="round" stroke-linejoin="round" stroke-width="2.449"/>
                <path id="Path_11645" data-name="Path 11645" d="M1307.274,1887.37a2.074,2.074,0,0,1,1.1-1,3.443,3.443,0,0,1,3.246.3,4.063,4.063,0,0,1,1.344,1.267l.145-.182q1.5-1.879,2.992-3.759c.359-.452.275-.749-.267-.957-1.99-.763-3.977-1.533-5.97-2.287a1.246,1.246,0,0,0-1.551.4c-1.225,1.588-2.505,3.134-3.734,4.719a2.759,2.759,0,0,1-2.643,1.094,3.522,3.522,0,0,1-2.843-1.856,1.878,1.878,0,0,1,.969-2.786,3.873,3.873,0,0,1,4.025.665,4.08,4.08,0,0,1,.628.826l.133-.167c1.491-1.873,3-3.733,4.465-5.625a2.445,2.445,0,0,1,2.667-.739c2.27.931,4.583,1.758,6.871,2.645.672.26,1.036.738.921,1.306a1.691,1.691,0,0,1-.324.69q-3.26,4.12-6.541,8.222a2.7,2.7,0,0,1-2.757.912,4.8,4.8,0,0,1-2.419-1.365,2.011,2.011,0,0,1-.635-1.583" transform="translate(-1294.285 -1867.95)" fill="#b8d4ff"/>
                <path id="Path_11646" data-name="Path 11646" d="M1325.989,1881.84l.617.237c.672.26,1.036.738.921,1.307a1.687,1.687,0,0,1-.324.69q-3.26,4.12-6.541,8.222a2.7,2.7,0,0,1-2.757.912,3.89,3.89,0,0,1-2.169-1.084" transform="translate(-1302.038 -1870.101)" fill="none" stroke="#717791" stroke-linecap="round" stroke-linejoin="round" stroke-width="1.873"/>
                <path id="Path_11647" data-name="Path 11647" d="M1307.418,1887.121a2.157,2.157,0,0,1,.956-.754,3.443,3.443,0,0,1,3.246.3,4.063,4.063,0,0,1,1.344,1.267l.145-.182q1.5-1.879,2.992-3.759c.359-.452.275-.749-.267-.957-1.99-.763-3.977-1.533-5.97-2.287a1.246,1.246,0,0,0-1.551.4c-1.225,1.588-2.505,3.134-3.734,4.719a2.759,2.759,0,0,1-2.643,1.094,3.522,3.522,0,0,1-2.843-1.856,1.878,1.878,0,0,1,.969-2.786,3.873,3.873,0,0,1,4.025.665,4.08,4.08,0,0,1,.628.826l.133-.167c1.491-1.873,3-3.733,4.465-5.625a2.445,2.445,0,0,1,2.667-.739c1.2.492,2.409.954,3.622,1.412l.826.313" transform="translate(-1294.285 -1867.95)" fill="none" stroke="#717791" stroke-linecap="round" stroke-linejoin="round" stroke-width="1.873"/>
                <path id="Path_11648" data-name="Path 11648" d="M1314.113,1897.453c0-.041,0-.082,0-.122" transform="translate(-1301.294 -1877.195)" fill="none" stroke="#717791" stroke-linecap="round" stroke-linejoin="round" stroke-width="1.873"/>
              </g>
            </g>
          </g>
        </g>
      </g>
      <ellipse id="Ellipse_508" data-name="Ellipse 508" cx="1.165" cy="2.382" rx="1.165" ry="2.382" transform="translate(96.543 76.434)" fill="#e5eefd" stroke="#717791" stroke-linecap="round" stroke-linejoin="round" stroke-width="2.358"/>
      <ellipse id="Ellipse_509" data-name="Ellipse 509" cx="1.165" cy="2.382" rx="1.165" ry="2.382" transform="translate(96.543 90.475)" fill="#e5eefd" stroke="#717791" stroke-linecap="round" stroke-linejoin="round" stroke-width="2.358"/>
      <ellipse id="Ellipse_510" data-name="Ellipse 510" cx="1.165" cy="2.382" rx="1.165" ry="2.382" transform="translate(96.543 104.516)" fill="#e5eefd" stroke="#717791" stroke-linecap="round" stroke-linejoin="round" stroke-width="2.358"/>
    </g>
  </g>
</svg>
